<svg width="460" height="260" viewBox="0 0 460 260" fill="none" xmlns="http://www.w3.org/2000/svg">
<g clip-path="url(#clip0_248_594)">
<mask id="mask0_248_594" style="mask-type:luminance" maskUnits="userSpaceOnUse" x="-41" y="0" width="542" height="360">
<path d="M500.588 0H-40.5883V360H500.588V0Z" fill="white"/>
</mask>
<g mask="url(#mask0_248_594)">
<path d="M4.51694 -38.484C4.51694 -38.484 14.0344 -20.7792 1.77498 8.92801C-10.2752 38.1168 8.52886 33.1632 13.7169 51.2208C19.3452 70.812 5.93843 79.6896 2.85012 94.9248C-0.0361589 109.152 32.9828 110.772 23.8405 143.237C15.1962 173.93 -7.60542 183.434 8.54329 221.054C24.7642 258.854 28.9348 265.003 6.89811 313.56C-14.9654 361.735 -13.479 379.454 26.4526 417.29" stroke="url(#paint0_linear_248_594)" stroke-linecap="round" stroke-linejoin="round"/>
<path d="M12.779 -37.1232C12.779 -37.1232 17.7145 -17.028 7.3023 12.636C-2.7275 41.2128 15.3406 37.6776 21.5244 55.2024C28.502 74.9952 18.1042 84.1104 13.9912 100.116C10.405 114.077 35.7898 117.432 30.0028 149.292C24.4107 180.036 4.6325 189.554 17.0363 226.886C29.5771 264.629 31.3161 272.11 12.7646 319.378C-5.45503 365.803 -5.16641 381.168 37.0887 420.638" stroke="url(#paint1_linear_248_594)" stroke-linecap="round" stroke-linejoin="round"/>
<path d="M21.0409 -35.7624C21.0409 -35.7624 21.3728 -13.3272 12.8222 16.3512C4.77669 44.2728 22.2026 42.1992 29.3172 59.1912C37.6947 79.2 27.9246 87.732 22.7365 104.522C18.5009 118.217 38.6471 124.193 36.1361 155.362C33.6467 186.235 16.8197 195.718 25.5001 232.726C34.3466 270.439 33.6611 279.173 18.6092 325.195C4.00462 369.835 3.13152 382.882 47.7028 423.979" stroke="url(#paint2_linear_248_594)" stroke-linecap="round" stroke-linejoin="round"/>
<path d="M29.3029 -34.4016C29.3029 -34.4016 25.0024 -9.64801 18.3495 20.0664C12.245 47.304 29.1225 46.7136 37.1175 63.18C46.9381 83.3976 36.2228 92.16 29.9163 109.721C25.089 123.163 41.6129 131.004 42.2839 161.431C42.9694 192.506 28.9926 201.917 33.9787 238.572C39.109 276.286 35.9991 286.193 24.4612 331.02C13.4428 373.824 11.4297 384.595 58.3244 427.334" stroke="url(#paint3_linear_248_594)" stroke-linecap="round" stroke-linejoin="round"/>
<path d="M37.5649 -33.0408C37.5649 -33.0408 28.5886 -6.01198 23.8696 23.7744C19.6628 50.2992 36.0785 51.2136 44.9105 67.1616C56.2247 87.5808 46.9309 99.7704 39.4554 118.102C34.0725 131.292 44.6724 137.851 48.4245 167.494C52.386 198.806 41.1223 208.123 42.45 244.404C43.8282 282.146 38.2937 293.148 30.3132 336.83C22.8377 377.755 19.735 386.302 68.946 430.668" stroke="url(#paint4_linear_248_594)" stroke-linecap="round" stroke-linejoin="round"/>
<path d="M45.8268 -31.68C45.8268 -31.68 32.1242 -2.39039 29.3895 27.4896C27.0299 53.28 43.0704 55.6992 52.7105 71.1504C65.5689 91.7568 57.6966 104.22 49.0017 123.3C43.0993 136.26 47.8544 144.713 54.5722 173.556C61.9178 205.121 53.2229 214.344 50.9283 250.243C48.5182 288.022 40.5305 300.067 36.165 342.648C32.1675 381.643 28.0329 388.015 79.5745 434.009" stroke="url(#paint5_linear_248_594)" stroke-linecap="round" stroke-linejoin="round"/>
<path d="M54.0887 -30.3192C54.0887 -30.3192 35.6022 1.2096 34.9167 31.2048C34.3466 56.2536 50.0985 60.1704 60.5107 75.1392C74.9493 95.8968 68.4985 108.684 58.548 128.498C52.1549 141.235 51.1447 151.553 60.72 179.618C71.5651 211.406 65.2803 220.565 59.4139 256.075C53.1651 293.89 42.7024 306.943 42.0241 348.458C41.4252 385.502 36.3381 389.722 90.2032 437.35" stroke="url(#paint6_linear_248_594)" stroke-linecap="round" stroke-linejoin="round"/>
<path d="M62.3507 -28.9584C62.3507 -28.9584 39.0007 4.8096 40.4367 34.9128C41.5912 59.2128 57.1482 64.6056 68.3036 79.1208C84.3585 100.001 79.3364 113.177 68.0872 133.697C61.225 146.225 54.5 158.342 66.8533 185.688C81.2919 217.649 77.28 226.778 67.8779 261.922C57.7471 299.758 44.7516 313.819 47.8688 354.283C50.5675 389.354 44.6362 391.442 100.818 440.698" stroke="url(#paint7_linear_248_594)" stroke-linecap="round" stroke-linejoin="round"/>
<path d="M70.6126 -27.5976C70.6126 -27.5976 42.3272 8.42401 45.9566 38.628C48.7852 62.1864 64.2123 69.0336 76.0966 83.1096C115.696 130.01 44.8671 141.977 73.001 191.75C91.1196 223.805 89.2652 232.97 76.3563 267.754C62.3074 305.597 46.6926 320.688 53.7207 360.094C59.6232 393.199 52.9342 393.142 111.439 444.038" stroke="url(#paint8_linear_248_594)" stroke-linecap="round" stroke-linejoin="round"/>
<path d="M78.8747 -26.2368C78.8747 -26.2368 45.5815 12.06 51.4839 42.3432C55.936 65.1888 71.2982 73.4328 83.904 87.0984C129.897 136.973 47.5297 151.394 79.1561 197.82C101.005 229.889 101.236 239.141 84.8421 273.6C66.8534 311.414 48.5255 327.622 59.5872 365.926C68.5923 397.109 61.254 394.87 122.075 447.394" stroke="url(#paint9_linear_248_594)" stroke-linecap="round" stroke-linejoin="round"/>
<path d="M87.1366 -24.876C87.1366 -24.876 48.7635 15.7464 57.0039 46.0512C63.029 68.2056 78.3912 77.8104 91.6969 91.08C144.242 143.482 50.3005 160.15 85.2893 203.875C110.898 235.879 113.171 245.268 93.306 279.425C71.3559 317.182 50.2067 334.62 65.4246 371.729C77.4531 401.062 69.5375 396.569 132.682 450.72" stroke="url(#paint10_linear_248_594)" stroke-linecap="round" stroke-linejoin="round"/>
<path d="M95.3985 -23.5152C95.3985 -23.5152 51.8735 19.4832 62.531 49.7664C70.1003 71.28 85.4841 82.1664 99.497 95.0688C158.723 149.609 53.2589 167.688 92.2308 209.945C121.613 241.805 125.113 251.381 101.792 285.271C75.8728 322.934 51.823 341.762 71.2909 377.554C86.2923 405.13 77.8572 398.29 143.325 454.075" stroke="url(#paint11_linear_248_594)" stroke-linecap="round" stroke-linejoin="round"/>
<path d="M103.653 -22.1544C103.653 -22.1544 54.9331 23.292 68.044 53.4816C77.1285 74.4048 92.5701 86.508 107.283 99.0576C170.168 152.698 56.0226 174.067 99.1508 215.244C132.3 246.895 137.04 257.465 110.256 291.11C80.3611 328.658 53.3673 349.042 77.1285 383.371C95.0739 409.306 86.1409 400.003 153.932 457.416" stroke="url(#paint12_linear_248_594)" stroke-linecap="round" stroke-linejoin="round"/>
<path d="M108.964 -22.8816C108.964 -22.8816 64.4793 19.98 75.5915 50.2488C83.4494 71.6472 99.3744 82.836 113.517 95.6664C172.881 149.537 64.6381 170.654 103.971 212.249C134.06 244.073 139.66 254.477 115.689 288.317C89.0199 325.966 59.7242 345.283 79.9859 380.815C95.5357 408.074 93.1473 402.624 159.048 458.712" stroke="url(#paint13_linear_248_594)" stroke-linecap="round" stroke-linejoin="round"/>
<path d="M114.275 -23.616C114.275 -23.616 73.9968 16.7112 83.1319 47.016C89.7415 68.9256 106.164 79.1496 119.737 92.2824C174.634 145.39 74.3143 165.881 110.349 208.498C137.372 240.451 142.264 251.482 121.101 285.538C97.6571 323.266 68.4191 341.64 85.2172 378.266C98.3642 406.93 100.139 405.252 164.15 460.022" stroke="url(#paint14_linear_248_594)" stroke-linecap="round" stroke-linejoin="round"/>
<path d="M119.586 -24.3432C119.586 -24.3432 83.4711 13.4856 90.6796 43.7904C96.0192 66.24 112.969 75.4632 125.972 88.8984C175.053 139.644 83.9257 160.848 116.75 204.739C140.713 236.779 144.884 248.465 126.534 282.751C106.316 320.537 79.4736 338.069 92.8659 375.718C103.581 405.85 107.146 407.887 169.273 461.326" stroke="url(#paint15_linear_248_594)" stroke-linecap="round" stroke-linejoin="round"/>
<path d="M124.896 -25.0704C124.896 -25.0704 92.9019 10.296 98.2199 40.5648C102.268 63.5832 119.766 71.7552 132.191 85.5216C175.89 133.942 93.4575 155.477 123.128 200.995C144.04 233.071 147.474 245.441 131.953 279.979C114.953 317.801 89.6549 334.591 99.6991 373.176C107.939 404.834 114.138 410.522 174.381 462.636" stroke="url(#paint16_linear_248_594)" stroke-linecap="round" stroke-linejoin="round"/>
<path d="M130.207 -25.8048C130.207 -25.8048 102.275 7.12799 105.768 37.3248C108.495 60.9264 126.585 68.0184 138.426 82.1232C176.828 127.865 102.932 149.566 129.529 197.23C147.416 229.284 150.079 242.381 137.387 277.186C123.583 315.029 101.359 331.142 108.141 370.62C113.849 403.848 121.144 413.143 179.505 463.939" stroke="url(#paint17_linear_248_594)" stroke-linecap="round" stroke-linejoin="round"/>
<path d="M135.518 -26.532C135.518 -26.532 111.605 3.9816 113.315 34.0992C114.686 58.3056 133.404 64.2888 144.653 78.7464C178.119 121.752 112.218 142.603 135.915 193.478C150.808 225.454 152.655 239.314 142.806 274.406C132.184 312.25 110.573 327.737 114.174 368.078C117.284 402.898 128.136 415.786 184.606 465.25" stroke="url(#paint18_linear_248_594)" stroke-linecap="round" stroke-linejoin="round"/>
<path d="M140.821 -27.2592C140.821 -27.2592 120.877 0.842402 120.848 30.8736C120.819 55.6848 140.222 60.5376 150.866 75.3624C179.613 115.387 121.498 134.352 142.293 189.727C154.25 221.573 155.195 236.239 148.217 271.627C140.756 309.449 121.303 324.346 121.801 365.53C122.241 401.954 135.121 418.414 189.708 466.553" stroke="url(#paint19_linear_248_594)" stroke-linecap="round" stroke-linejoin="round"/>
<path d="M146.132 -27.9936C146.132 -27.9936 130.113 -2.29679 128.396 27.6408C126.938 53.064 147.07 56.7648 157.1 71.9784C181.965 109.678 130.654 123.077 148.686 185.976C157.771 217.656 157.735 233.15 153.644 268.848C149.314 306.641 131.174 320.94 128.641 362.988C126.354 401.011 142.12 421.056 194.824 467.863" stroke="url(#paint20_linear_248_594)" stroke-linecap="round" stroke-linejoin="round"/>
<path d="M151.443 -28.7208C151.443 -28.7208 139.299 -5.44319 135.936 24.408C133.007 50.436 153.932 52.9848 163.32 68.5872C175.687 89.136 165.528 100.678 158.074 119.858C149.646 141.545 149.271 153.122 155.072 182.218C161.35 213.703 160.231 230.047 159.07 266.062C157.85 303.826 143.376 317.513 137.877 360.432C132.797 400.032 149.127 423.677 199.939 469.166" stroke="url(#paint21_linear_248_594)" stroke-linecap="round" stroke-linejoin="round"/>
<path d="M156.754 -29.448C156.754 -29.448 148.448 -8.5896 143.484 21.1824C139.046 47.8008 160.816 49.1976 169.554 65.2104C180.681 85.608 169.359 96.9336 162.779 115.438C154.632 138.355 158.096 148.73 161.465 178.466C165.008 209.75 162.714 226.958 164.496 263.282C166.35 301.018 153.939 314.071 145.512 357.89C137.596 399.053 156.119 426.312 205.048 470.477" stroke="url(#paint22_linear_248_594)" stroke-linecap="round" stroke-linejoin="round"/>
<path d="M162.064 -30.1824C162.064 -30.1824 157.569 -11.772 151.031 17.9496C145.05 45.144 167.729 45.3888 175.781 61.8192C185.696 82.0512 173.22 93.1896 167.476 111.01C159.683 135.18 166.985 144.331 167.858 174.708C168.746 205.798 165.167 223.87 169.922 260.496C181.207 347.414 95.045 366.955 210.164 471.78" stroke="url(#paint23_linear_248_594)" stroke-linecap="round" stroke-linejoin="round"/>
<path d="M167.375 -30.9096C167.375 -30.9096 166.653 -14.9616 158.572 14.724C151.017 42.48 174.663 41.58 182.008 58.4424C190.739 78.5016 177.123 89.46 172.173 106.589C164.821 132.019 175.954 139.968 174.244 170.957C172.541 201.874 167.584 220.795 175.341 257.717C193.95 346.32 96.7262 364.111 215.266 473.09" stroke="url(#paint24_linear_248_594)" stroke-linecap="round" stroke-linejoin="round"/>
<path d="M172.686 -31.6368C172.686 -31.6368 175.724 -18.1728 166.12 11.4912C156.963 39.7872 181.64 37.764 188.236 55.0512C195.819 74.9376 181.063 85.716 176.871 102.161C170.059 128.873 184.981 135.626 180.637 167.198C176.395 197.986 169.994 217.742 180.767 254.93C206.462 343.634 98.2921 361.001 220.381 474.386" stroke="url(#paint25_linear_248_594)" stroke-linecap="round" stroke-linejoin="round"/>
<path d="M177.997 -32.3712C177.997 -32.3712 184.772 -21.42 173.66 8.2584C162.873 37.0656 188.647 33.9408 194.456 51.66C200.928 71.3736 185.025 81.9576 181.561 97.7256C175.406 125.726 194.059 131.335 187.016 163.433C180.277 194.148 172.376 214.697 186.186 252.137C200.105 289.894 192.717 299.938 172.859 347.681C153.276 394.769 184.101 436.824 225.49 475.682" stroke="url(#paint26_linear_248_594)" stroke-linecap="round" stroke-linejoin="round"/>
<path d="M183.3 -33.0984C183.3 -33.0984 193.806 -24.6816 181.2 5.03281C168.768 34.3368 195.682 30.1248 200.683 48.2832C206.066 67.8312 189.022 78.192 186.259 93.312C180.897 122.602 203.179 127.123 193.409 159.689C184.195 190.382 174.764 211.694 191.613 249.365C208.519 287.179 202.386 296.345 179.699 345.146C157.15 393.646 191.107 439.466 230.599 477" stroke="url(#paint27_linear_248_594)" stroke-linecap="round" stroke-linejoin="round"/>
<path d="M188.611 -33.8256C188.611 -33.8256 202.833 -27.9648 188.741 1.8072C174.648 31.5792 202.761 26.3232 206.903 44.8992C211.232 64.296 193.041 74.3976 190.949 88.884C186.525 119.462 212.322 122.947 199.788 155.938C188.113 186.667 177.131 208.699 197.024 246.593C216.918 284.479 212.04 292.723 186.525 342.612C161.011 392.501 198.092 442.116 235.7 478.325" stroke="url(#paint28_linear_248_594)" stroke-linecap="round" stroke-linejoin="round"/>
<path d="M195.321 -35.0064C195.321 -35.0064 205.827 -26.5896 193.222 3.12481C180.789 32.4288 207.704 28.2168 212.704 46.3752C218.087 65.9232 201.043 76.284 198.28 91.404C192.919 120.694 215.201 125.215 205.431 157.781C196.216 188.474 186.785 209.786 203.634 247.457C220.54 285.271 214.407 294.437 191.721 343.238C169.172 391.738 203.129 437.558 242.62 475.092" stroke="url(#paint29_linear_248_594)" stroke-linecap="round" stroke-linejoin="round"/>
<path d="M202.025 -36.1944C202.025 -36.1944 208.8 -25.2432 197.688 4.43522C186.901 33.2424 212.668 30.1176 218.484 47.8368C224.956 67.5504 209.053 78.1344 205.589 93.9024C199.434 121.903 218.087 127.512 211.044 159.61C204.305 190.325 196.404 210.874 210.214 248.314C224.134 286.07 216.745 296.114 196.887 343.858C177.304 390.946 208.129 433.001 249.518 471.859" stroke="url(#paint30_linear_248_594)" stroke-linecap="round" stroke-linejoin="round"/>
<path d="M208.735 -37.3752C208.735 -37.3752 211.773 -23.9112 202.169 5.7528C193.012 34.0488 217.69 32.0256 224.285 49.3128C231.869 69.1992 217.113 79.9776 212.92 96.4224C206.109 123.134 221.031 129.888 216.687 161.46C212.444 192.247 206.044 212.004 216.817 249.192C242.512 337.896 134.342 355.262 256.431 468.648" stroke="url(#paint31_linear_248_594)" stroke-linecap="round" stroke-linejoin="round"/>
<path d="M215.446 -38.556C215.446 -38.556 214.724 -22.608 206.643 7.0776C199.088 34.8336 222.741 33.9336 230.079 50.7888C238.818 70.848 225.194 81.8064 220.244 98.9352C212.892 124.366 224.025 132.314 222.315 163.303C220.612 194.22 215.655 213.142 223.412 250.063C242.021 338.666 144.797 356.458 263.336 465.437" stroke="url(#paint32_linear_248_594)" stroke-linecap="round" stroke-linejoin="round"/>
<path d="M222.149 -39.7368C222.149 -39.7368 217.654 -21.3264 211.117 8.3952C205.135 35.5896 227.814 35.8344 235.866 52.2648C245.781 72.4968 233.305 83.6352 227.561 101.455C219.768 125.626 227.07 134.777 227.944 165.154C228.831 196.243 225.252 214.315 230.007 250.942C241.293 337.86 155.13 357.401 270.249 462.226" stroke="url(#paint33_linear_248_594)" stroke-linecap="round" stroke-linejoin="round"/>
<path d="M228.86 -40.9176C228.86 -40.9176 220.555 -20.0592 215.59 9.71281C211.153 36.3312 232.922 37.728 241.661 53.7408C252.787 74.1384 241.466 85.464 234.885 103.968C226.731 126.886 230.202 137.261 233.572 166.997C237.115 198.281 234.82 215.489 236.602 251.813C238.457 289.548 226.046 302.602 217.618 346.421C209.702 387.583 228.225 414.842 277.154 459.007" stroke="url(#paint34_linear_248_594)" stroke-linecap="round" stroke-linejoin="round"/>
<path d="M235.57 -42.0984C235.57 -42.0984 223.426 -18.8208 220.064 11.0304C217.134 37.0584 238.06 39.6072 247.447 55.2096C259.815 75.7584 249.655 87.3 242.202 106.481C233.774 128.167 233.398 139.745 239.2 168.84C245.478 200.326 244.359 216.67 243.197 252.684C241.978 290.448 228.304 304.135 222.799 347.054C217.719 386.654 233.247 410.299 284.06 455.789" stroke="url(#paint35_linear_248_594)" stroke-linecap="round" stroke-linejoin="round"/>
<path d="M242.274 -43.2792C242.274 -43.2792 226.255 -17.5824 224.538 12.3552C223.08 37.7784 243.212 41.4792 253.242 56.6928C278.107 94.392 226.796 107.791 244.828 170.69C253.913 202.37 253.877 217.865 249.785 253.562C245.456 291.355 230.505 305.654 227.972 347.702C225.685 385.726 238.262 405.77 290.958 452.578" stroke="url(#paint36_linear_248_594)" stroke-linecap="round" stroke-linejoin="round"/>
<path d="M248.984 -44.46C248.984 -44.46 229.04 -16.3584 229.011 13.6728C228.99 38.484 248.385 43.3368 259.029 58.1616C287.776 98.1864 229.661 117.151 250.456 172.526C262.413 204.372 263.358 219.038 256.38 254.426C248.919 292.248 232.655 307.145 233.153 348.329C233.593 384.754 243.284 401.213 297.871 449.352" stroke="url(#paint37_linear_248_594)" stroke-linecap="round" stroke-linejoin="round"/>
<path d="M255.688 -45.6408C255.688 -45.6408 231.775 -15.1272 233.485 14.9904C234.856 39.1968 253.574 45.18 264.823 59.6376C298.289 102.643 232.388 123.494 256.085 174.37C270.978 206.345 272.825 220.205 262.976 255.298C252.354 293.141 234.733 308.628 238.334 348.97C241.444 383.789 248.306 396.677 304.776 446.141" stroke="url(#paint38_linear_248_594)" stroke-linecap="round" stroke-linejoin="round"/>
<path d="M262.398 -46.8216C262.398 -46.8216 234.467 -13.8888 237.959 16.308C240.686 39.9096 258.776 47.0016 270.617 61.1064C309.019 106.848 235.123 128.549 261.72 176.213C279.608 208.267 282.27 221.364 269.578 256.169C255.774 294.012 236.747 310.126 243.522 349.603C249.23 382.831 253.336 392.126 311.689 442.915" stroke="url(#paint39_linear_248_594)" stroke-linecap="round" stroke-linejoin="round"/>
<path d="M269.109 -48.0024C269.109 -48.0024 237.115 -12.636 242.433 17.6328C246.481 40.6512 263.979 48.8232 276.404 62.5896C320.102 111.01 237.67 132.545 267.341 178.063C288.252 210.139 291.687 222.509 276.166 257.047C259.166 294.869 238.652 311.659 248.696 350.244C256.936 381.902 258.35 387.59 318.594 439.704" stroke="url(#paint40_linear_248_594)" stroke-linecap="round" stroke-linejoin="round"/>
<path d="M275.812 -49.1832C275.812 -49.1832 239.698 -11.3544 246.906 18.9504C252.246 41.4 269.195 50.6232 282.198 64.0584C331.279 114.804 240.152 136.008 272.976 179.899C296.94 211.939 301.11 223.625 282.761 257.911C262.543 295.697 240.491 313.229 253.877 350.878C264.592 381.01 263.372 383.047 325.499 436.486" stroke="url(#paint41_linear_248_594)" stroke-linecap="round" stroke-linejoin="round"/>
<path d="M282.523 -50.364C282.523 -50.364 242.245 -10.0368 251.38 20.268C257.99 42.1776 274.413 52.4016 287.985 65.5344C342.882 118.642 242.563 139.133 278.598 181.75C305.62 213.703 310.513 224.734 289.349 258.79C265.905 296.518 242.252 314.892 259.05 351.518C272.197 380.182 268.38 378.504 332.398 433.274" stroke="url(#paint42_linear_248_594)" stroke-linecap="round" stroke-linejoin="round"/>
<path d="M289.226 -51.5448C289.226 -51.5448 244.742 -8.68321 255.854 21.5856C263.712 42.984 279.637 54.1728 293.779 67.0032C354.283 121.903 245.016 142.114 284.233 183.586C314.322 215.41 319.922 225.814 295.951 259.654C269.282 297.302 243.977 316.62 264.238 352.152C279.788 379.411 273.409 373.961 339.31 430.049" stroke="url(#paint43_linear_248_594)" stroke-linecap="round" stroke-linejoin="round"/>
<path d="M295.937 -52.7256C295.937 -52.7256 247.217 -7.2792 260.328 22.9104C269.412 43.8336 284.854 55.9368 299.566 68.4864C366.016 125.165 247.491 145.001 289.854 185.443C323.003 217.094 329.324 226.894 302.539 260.539C272.645 298.087 245.651 318.47 269.412 352.8C287.357 378.734 278.424 369.432 346.216 426.845" stroke="url(#paint44_linear_248_594)" stroke-linecap="round" stroke-linejoin="round"/>
<path d="M302.546 -52.3512C302.546 -52.3512 258.055 -8.8992 269.159 21.3696C277.017 42.768 292.408 53.892 306.551 66.7224C367.921 122.414 255.782 142.51 298.109 182.916C331.258 214.567 335.854 224.899 309.069 258.552C279.175 296.1 254.67 316.03 278.98 351.079C296.947 376.999 289.399 368.777 350.906 425.599" stroke="url(#paint45_linear_248_594)" stroke-linecap="round" stroke-linejoin="round"/>
<path d="M309.156 -51.9696C309.156 -51.9696 268.856 -10.4616 277.999 19.8432C284.608 41.7528 299.971 51.8472 313.543 64.9728C370.1 119.693 263.827 139.795 306.371 180.41C339.52 212.062 342.399 222.934 315.607 256.579C263.084 322.553 255.522 322.481 355.596 424.375" stroke="url(#paint46_linear_248_594)" stroke-linecap="round" stroke-linejoin="round"/>
<path d="M315.758 -51.5952C315.758 -51.5952 279.615 -11.9952 286.823 18.3024C292.163 40.752 307.518 49.7736 320.521 63.2088C372.712 117.173 271.62 136.843 314.611 177.883C347.76 209.527 348.914 220.939 322.13 254.592C269.527 320.666 269.08 319.471 360.279 423.137" stroke="url(#paint47_linear_248_594)" stroke-linecap="round" stroke-linejoin="round"/>
<path d="M322.368 -51.2136C322.368 -51.2136 290.338 -13.4856 295.663 16.776C299.711 39.7944 315.087 47.7 327.513 61.4592C374.422 113.436 280.272 134.698 322.873 175.378C356.022 207.029 355.459 218.974 328.667 252.619C276.469 318.182 281.982 314.842 364.969 421.913" stroke="url(#paint48_linear_248_594)" stroke-linecap="round" stroke-linejoin="round"/>
<path d="M328.978 -50.8392C328.978 -50.8392 301.01 -14.9616 304.495 15.2352C307.222 38.8368 322.657 45.5976 334.498 59.7024C376.854 110.153 288.447 132.113 331.128 172.858C364.277 204.502 361.989 216.986 335.205 250.639C282.112 317.333 296.255 310.817 369.667 420.674" stroke="url(#paint49_linear_248_594)" stroke-linecap="round" stroke-linejoin="round"/>
<path d="M335.587 -50.4576C335.587 -50.4576 311.624 -16.4088 313.334 13.7088C314.705 37.9152 330.233 43.4952 341.49 57.9528C379.437 106.718 296.55 129.456 339.39 170.345C372.539 201.989 368.527 215.014 341.742 248.659C311.847 286.207 299.783 303.862 326.82 342.533C344.874 368.395 344.268 365.602 374.364 419.443" stroke="url(#paint50_linear_248_594)" stroke-linecap="round" stroke-linejoin="round"/>
<path d="M342.197 -50.076C342.197 -50.076 322.195 -17.8488 322.166 12.1824C322.144 36.9936 337.824 41.3784 348.467 56.2032C382.15 103.104 304.567 126.727 347.63 167.839C380.779 199.49 375.05 213.041 348.265 246.694C318.371 284.242 308.788 301.442 336.374 340.834C354.449 366.689 355.221 364.975 379.04 418.226" stroke="url(#paint51_linear_248_594)" stroke-linecap="round" stroke-linejoin="round"/>
<path d="M348.799 -49.7016C348.799 -49.7016 332.715 -19.296 330.998 10.6416C329.54 36.0648 345.422 39.2328 355.452 54.4392C385.029 99.288 312.519 123.912 355.885 165.312C389.034 196.963 381.58 211.054 354.795 244.699C324.901 282.247 317.808 298.994 345.942 339.106C364.031 364.946 366.196 364.32 383.73 416.974" stroke="url(#paint52_linear_248_594)" stroke-linecap="round" stroke-linejoin="round"/>
<path d="M355.409 -49.32C355.409 -49.32 343.192 -20.736 339.83 9.11521C336.9 35.1432 353.042 37.0872 362.437 52.6896C388.103 95.328 320.362 121.018 364.14 162.806C397.288 194.458 388.117 209.081 361.325 242.734C331.431 280.282 326.827 296.575 355.502 337.406C373.614 363.233 377.164 363.694 388.413 415.75" stroke="url(#paint53_linear_248_594)" stroke-linecap="round" stroke-linejoin="round"/>
<path d="M362.018 -48.9456C333.22 42.8904 356.08 26.4744 369.421 50.9328C391.097 90.6624 328.307 118.202 372.394 160.286C405.543 191.938 394.648 207.101 367.863 240.746C337.968 278.294 335.854 294.134 365.078 335.693C383.203 361.512 388.139 363.053 393.111 414.518" stroke="url(#paint54_linear_248_594)" stroke-linecap="round" stroke-linejoin="round"/>
<path d="M368.628 -48.564C368.628 -48.564 364.039 -23.6736 357.501 6.04802C351.519 33.2424 368.361 32.7456 376.413 49.176C394.583 86.256 335.84 114.991 380.649 157.774C413.798 189.425 401.178 205.121 374.393 238.774C344.499 276.322 344.867 291.701 374.638 333.986C392.786 359.791 399.107 362.419 397.794 413.287" stroke="url(#paint55_linear_248_594)" stroke-linecap="round" stroke-linejoin="round"/>
<path d="M375.23 -48.1824C375.23 -48.1824 374.408 -25.164 366.326 4.52161C358.771 32.2776 376.053 30.5712 383.391 47.4264C398.544 82.224 342.868 111.319 388.897 155.261C422.046 186.912 407.708 203.148 380.923 236.794C351.029 274.342 353.886 289.267 384.199 332.273C402.361 358.07 410.075 361.778 402.484 412.049" stroke="url(#paint56_linear_248_594)" stroke-linecap="round" stroke-linejoin="round"/>
<path d="M381.84 -47.808C381.84 -47.808 384.769 -26.6832 375.165 2.9808C366.008 31.2768 383.788 28.3752 390.376 45.6624C397.96 65.5488 385.022 77.148 380.44 93.492C376.558 107.338 371.326 128.088 397.144 152.734C430.293 184.385 414.231 201.154 387.446 234.806C357.552 272.354 362.898 286.826 393.76 330.552C411.944 356.335 421.042 361.13 407.167 410.81" stroke="url(#paint57_linear_248_594)" stroke-linecap="round" stroke-linejoin="round"/>
<path d="M388.449 -47.4264C388.449 -47.4264 395.109 -28.224 383.997 1.45441C373.21 30.2616 391.545 26.1936 397.361 43.92C403.833 63.6336 389.734 75.0528 386.01 90.7704C382.677 104.832 379.581 125.59 405.406 150.242C438.555 181.894 420.776 199.202 393.991 232.848C364.096 270.396 371.925 284.414 403.335 328.867C421.533 354.636 432.018 360.511 411.864 409.601" stroke="url(#paint58_linear_248_594)" stroke-linecap="round" stroke-linejoin="round"/>
<path d="M395.059 -47.052C395.059 -47.052 405.435 -29.7936 392.836 -0.0864032C380.404 29.2176 399.352 23.9976 404.353 42.156C409.735 61.704 394.482 72.9288 391.581 88.02C388.839 102.29 387.843 123.062 413.661 147.715C446.81 179.366 427.306 197.208 400.521 230.861C370.626 268.409 380.945 281.974 412.903 327.146C431.116 352.908 442.993 359.87 416.554 408.355" stroke="url(#paint59_linear_248_594)" stroke-linecap="round" stroke-linejoin="round"/>
<path d="M401.668 -46.6704C401.668 -46.6704 415.761 -31.3848 401.668 -1.6128C387.576 28.1592 407.196 21.8232 411.337 40.4064C415.667 59.8032 399.251 70.8048 397.144 85.284C395.037 99.7704 396.091 120.55 421.916 145.202C455.064 176.854 433.843 195.235 407.051 228.881C377.157 266.429 389.965 279.54 422.464 325.433C440.698 351.18 453.96 359.23 421.237 407.124" stroke="url(#paint60_linear_248_594)" stroke-linecap="round" stroke-linejoin="round"/>
<path d="M409.375 -45.8064C409.375 -45.8064 423.467 -30.5208 409.375 -0.7488C395.283 29.0232 414.895 22.6872 419.044 41.2704C423.373 60.6672 406.957 71.6688 404.851 86.148C402.744 100.634 406.063 120.146 429.694 145.138C459.784 176.962 438.634 194.623 414.657 228.463C387.987 266.112 401.286 278.05 429.167 324.763C445.244 351.698 457.265 360.821 428.944 407.988" stroke="url(#paint61_linear_248_594)" stroke-linecap="round" stroke-linejoin="round"/>
<path d="M417.074 -44.9496C417.074 -44.9496 431.166 -29.664 417.074 0.108014C402.982 29.88 422.601 23.544 426.743 42.1272C434.117 75.168 382.352 79.8912 437.473 145.066C464.495 177.019 443.426 193.982 422.262 228.038C398.818 265.766 412.535 276.761 435.871 324.086C449.797 352.339 460.577 362.405 436.65 408.838" stroke="url(#paint62_linear_248_594)" stroke-linecap="round" stroke-linejoin="round"/>
<path d="M424.78 -44.0856C424.78 -44.0856 438.872 -28.8 424.78 0.97201C410.688 30.744 430.307 24.408 434.449 42.9912C442.581 79.452 390.693 72.0432 445.251 145.001C469.214 177.041 448.217 193.334 429.867 227.621C409.649 265.406 423.669 275.674 442.574 323.417C454.328 353.102 463.882 363.996 444.349 409.702" stroke="url(#paint63_linear_248_594)" stroke-linecap="round" stroke-linejoin="round"/>
<path d="M432.487 -43.2216C432.487 -43.2216 446.579 -27.936 432.487 1.83599C418.394 31.608 438.014 25.272 442.156 43.8552C446.485 63.252 430.069 74.2536 427.962 88.7328C425.855 103.212 435.936 118.714 453.037 144.936C473.948 177.012 453.008 192.672 437.48 227.203C420.48 265.025 434.644 274.766 449.285 322.747C458.809 353.966 467.201 365.594 452.063 410.566" stroke="url(#paint64_linear_248_594)" stroke-linecap="round" stroke-linejoin="round"/>
<path d="M440.193 -42.3648C440.193 -42.3648 454.285 -27.0792 440.193 2.69281C426.101 32.4648 445.72 26.1288 449.862 44.712C454.191 64.1088 437.776 75.1104 435.669 89.5896C433.562 104.069 445.908 118.145 460.815 144.864C478.703 176.918 457.785 191.981 445.085 226.786C431.282 264.629 445.432 273.996 455.988 322.078C463.197 354.924 470.506 367.186 459.769 411.43" stroke="url(#paint65_linear_248_594)" stroke-linecap="round" stroke-linejoin="round"/>
<path d="M447.899 -41.5008C447.899 -41.5008 461.991 -26.2152 447.899 3.5568C433.807 33.3288 453.419 26.9928 457.568 45.576C461.898 64.9728 445.482 75.9744 443.375 90.4536C441.268 104.94 455.894 117.54 468.594 144.799C483.487 176.774 462.54 191.275 452.69 226.368C442.069 264.211 456.024 273.319 462.691 321.408C467.483 355.939 473.818 368.777 467.468 412.294" stroke="url(#paint66_linear_248_594)" stroke-linecap="round" stroke-linejoin="round"/>
<path d="M455.606 -40.6368C455.606 -40.6368 469.698 -25.3512 455.606 4.42081C441.513 34.1928 461.133 27.8568 465.275 46.44C469.604 65.8368 453.188 76.8384 451.081 91.3176C448.974 105.804 465.924 116.899 476.38 144.734C488.336 176.58 467.288 190.555 460.303 225.95C452.842 263.772 466.429 272.686 469.402 320.746C471.646 356.998 477.13 370.382 475.182 413.165" stroke="url(#paint67_linear_248_594)" stroke-linecap="round" stroke-linejoin="round"/>
<path d="M463.312 -39.78C463.312 -39.78 477.404 -24.4944 463.312 5.27762C449.22 35.0496 468.839 28.7136 472.981 47.2968C477.31 66.6936 460.895 77.6952 458.788 92.1744C456.681 106.661 476.004 116.208 484.158 144.662C493.243 176.342 472 189.821 467.908 225.526C463.579 263.318 476.661 272.059 476.105 320.069C475.665 358.049 480.435 371.966 482.881 414.014" stroke="url(#paint68_linear_248_594)" stroke-linecap="round" stroke-linejoin="round"/>
<path d="M-3.74489 -39.8448C-3.74489 -39.8448 10.3473 -24.5592 -3.74489 5.21281C-17.8371 34.9848 1.78232 28.6488 5.92412 47.232C10.2535 66.6288 -6.16215 77.6304 -8.26913 92.1096C-10.3761 106.596 28.6535 104.177 16.1199 137.167C4.44491 167.897 -19.8214 177.329 0.064988 215.215C19.9586 253.102 26.5538 257.861 1.0391 307.742C-24.4756 357.631 -21.7913 377.741 15.824 413.95" stroke="url(#paint69_linear_248_594)" stroke-linecap="round" stroke-linejoin="round"/>
<path d="M-9.02689 -41.616C-9.02689 -41.616 5.51993 -26.6616 -8.5723 3.1104C-22.6645 32.8824 -4.07693 27.5256 0.0720894 46.1016C4.4015 65.4984 -11.4441 75.852 -13.5511 90.3312C-15.6581 104.81 23.7612 103.846 11.2275 136.836C-0.447439 167.566 -25.6879 176.976 -5.80148 214.862C14.0922 252.749 19.3668 259.877 -4.64697 307.822C-28.668 355.81 -25.9765 377.431 10.5421 412.171" stroke="url(#paint70_linear_248_594)" stroke-linecap="round" stroke-linejoin="round"/>
<path d="M-14.316 -43.3944C-14.316 -43.3944 0.692616 -28.764 -13.3996 1.0008C-27.4919 30.7728 -9.92887 26.388 -5.77985 44.9712C-1.45044 64.368 -16.7261 74.0736 -18.833 88.56C-20.94 103.046 17.2887 103.514 4.75505 136.505C-6.91993 167.234 -31.5543 176.623 -11.6679 214.51C8.21858 252.396 12.1728 261.9 -10.333 307.908C-32.8531 353.995 -30.1617 377.122 5.26014 410.4" stroke="url(#paint71_linear_248_594)" stroke-linecap="round" stroke-linejoin="round"/>
<path d="M-19.5979 -45.1656C-19.5979 -45.1656 -4.13468 -30.8664 -18.2269 -1.1016C-32.3192 28.6704 -15.7808 25.2648 -11.639 43.848C-7.30958 63.2448 -22.0224 72.3024 -24.1293 86.7888C-26.2363 101.268 10.8018 103.19 -1.73186 136.181C-13.4068 166.91 -37.4351 176.278 -17.5414 214.164C2.35222 252.05 4.97151 263.923 -16.0261 307.994C-37.0526 352.188 -34.354 376.819 -0.0289577 408.629" stroke="url(#paint72_linear_248_594)" stroke-linecap="round" stroke-linejoin="round"/>
</g>
</g>
<defs>
<linearGradient id="paint0_linear_248_594" x1="9.63678" y1="-38.484" x2="9.63678" y2="417.29" gradientUnits="userSpaceOnUse">
<stop stop-color="white" stop-opacity="0"/>
<stop offset="1" stop-color="#003153"/>
</linearGradient>
<linearGradient id="paint1_linear_248_594" x1="19.1859" y1="-37.1232" x2="19.1859" y2="420.638" gradientUnits="userSpaceOnUse">
<stop stop-color="white" stop-opacity="0"/>
<stop offset="1" stop-color="#003153"/>
</linearGradient>
<linearGradient id="paint2_linear_248_594" x1="28.6732" y1="-35.7624" x2="28.6732" y2="423.979" gradientUnits="userSpaceOnUse">
<stop stop-color="white" stop-opacity="0"/>
<stop offset="1" stop-color="#003153"/>
</linearGradient>
<linearGradient id="paint3_linear_248_594" x1="37.6852" y1="-34.4016" x2="37.6852" y2="427.334" gradientUnits="userSpaceOnUse">
<stop stop-color="white" stop-opacity="0"/>
<stop offset="1" stop-color="#003153"/>
</linearGradient>
<linearGradient id="paint4_linear_248_594" x1="46.0692" y1="-33.0408" x2="46.0692" y2="430.668" gradientUnits="userSpaceOnUse">
<stop stop-color="white" stop-opacity="0"/>
<stop offset="1" stop-color="#003153"/>
</linearGradient>
<linearGradient id="paint5_linear_248_594" x1="54.365" y1="-31.68" x2="54.365" y2="434.009" gradientUnits="userSpaceOnUse">
<stop stop-color="white" stop-opacity="0"/>
<stop offset="1" stop-color="#003153"/>
</linearGradient>
<linearGradient id="paint6_linear_248_594" x1="62.5524" y1="-30.3192" x2="62.5524" y2="437.35" gradientUnits="userSpaceOnUse">
<stop stop-color="white" stop-opacity="0"/>
<stop offset="1" stop-color="#003153"/>
</linearGradient>
<linearGradient id="paint7_linear_248_594" x1="70.5953" y1="-28.9584" x2="70.5953" y2="440.698" gradientUnits="userSpaceOnUse">
<stop stop-color="white" stop-opacity="0"/>
<stop offset="1" stop-color="#003153"/>
</linearGradient>
<linearGradient id="paint8_linear_248_594" x1="78.537" y1="-27.5976" x2="78.537" y2="444.038" gradientUnits="userSpaceOnUse">
<stop stop-color="white" stop-opacity="0"/>
<stop offset="1" stop-color="#003153"/>
</linearGradient>
<linearGradient id="paint9_linear_248_594" x1="86.4288" y1="-26.2368" x2="86.4288" y2="447.394" gradientUnits="userSpaceOnUse">
<stop stop-color="white" stop-opacity="0"/>
<stop offset="1" stop-color="#003153"/>
</linearGradient>
<linearGradient id="paint10_linear_248_594" x1="94.2631" y1="-24.876" x2="94.2631" y2="450.72" gradientUnits="userSpaceOnUse">
<stop stop-color="white" stop-opacity="0"/>
<stop offset="1" stop-color="#003153"/>
</linearGradient>
<linearGradient id="paint11_linear_248_594" x1="102.088" y1="-23.5152" x2="102.088" y2="454.075" gradientUnits="userSpaceOnUse">
<stop stop-color="white" stop-opacity="0"/>
<stop offset="1" stop-color="#003153"/>
</linearGradient>
<linearGradient id="paint12_linear_248_594" x1="109.868" y1="-22.1544" x2="109.868" y2="457.416" gradientUnits="userSpaceOnUse">
<stop stop-color="white" stop-opacity="0"/>
<stop offset="1" stop-color="#003153"/>
</linearGradient>
<linearGradient id="paint13_linear_248_594" x1="116.141" y1="-22.8816" x2="116.141" y2="458.712" gradientUnits="userSpaceOnUse">
<stop stop-color="white" stop-opacity="0"/>
<stop offset="1" stop-color="#003153"/>
</linearGradient>
<linearGradient id="paint14_linear_248_594" x1="122.197" y1="-23.616" x2="122.197" y2="460.022" gradientUnits="userSpaceOnUse">
<stop stop-color="white" stop-opacity="0"/>
<stop offset="1" stop-color="#003153"/>
</linearGradient>
<linearGradient id="paint15_linear_248_594" x1="129.27" y1="-24.3432" x2="129.27" y2="461.326" gradientUnits="userSpaceOnUse">
<stop stop-color="white" stop-opacity="0"/>
<stop offset="1" stop-color="#003153"/>
</linearGradient>
<linearGradient id="paint16_linear_248_594" x1="135.897" y1="-25.0704" x2="135.897" y2="462.636" gradientUnits="userSpaceOnUse">
<stop stop-color="white" stop-opacity="0"/>
<stop offset="1" stop-color="#003153"/>
</linearGradient>
<linearGradient id="paint17_linear_248_594" x1="142.485" y1="-25.8048" x2="142.485" y2="463.939" gradientUnits="userSpaceOnUse">
<stop stop-color="white" stop-opacity="0"/>
<stop offset="1" stop-color="#003153"/>
</linearGradient>
<linearGradient id="paint18_linear_248_594" x1="148.917" y1="-26.532" x2="148.917" y2="465.25" gradientUnits="userSpaceOnUse">
<stop stop-color="white" stop-opacity="0"/>
<stop offset="1" stop-color="#003153"/>
</linearGradient>
<linearGradient id="paint19_linear_248_594" x1="155.278" y1="-27.2592" x2="155.278" y2="466.553" gradientUnits="userSpaceOnUse">
<stop stop-color="white" stop-opacity="0"/>
<stop offset="1" stop-color="#003153"/>
</linearGradient>
<linearGradient id="paint20_linear_248_594" x1="161.572" y1="-27.9936" x2="161.572" y2="467.863" gradientUnits="userSpaceOnUse">
<stop stop-color="white" stop-opacity="0"/>
<stop offset="1" stop-color="#003153"/>
</linearGradient>
<linearGradient id="paint21_linear_248_594" x1="167.798" y1="-28.7208" x2="167.798" y2="469.166" gradientUnits="userSpaceOnUse">
<stop stop-color="white" stop-opacity="0"/>
<stop offset="1" stop-color="#003153"/>
</linearGradient>
<linearGradient id="paint22_linear_248_594" x1="173.971" y1="-29.448" x2="173.971" y2="470.477" gradientUnits="userSpaceOnUse">
<stop stop-color="white" stop-opacity="0"/>
<stop offset="1" stop-color="#003153"/>
</linearGradient>
<linearGradient id="paint23_linear_248_594" x1="179.824" y1="-30.1824" x2="179.824" y2="471.78" gradientUnits="userSpaceOnUse">
<stop stop-color="white" stop-opacity="0"/>
<stop offset="1" stop-color="#003153"/>
</linearGradient>
<linearGradient id="paint24_linear_248_594" x1="185.309" y1="-30.9096" x2="185.309" y2="473.09" gradientUnits="userSpaceOnUse">
<stop stop-color="white" stop-opacity="0"/>
<stop offset="1" stop-color="#003153"/>
</linearGradient>
<linearGradient id="paint25_linear_248_594" x1="190.674" y1="-31.6368" x2="190.674" y2="474.386" gradientUnits="userSpaceOnUse">
<stop stop-color="white" stop-opacity="0"/>
<stop offset="1" stop-color="#003153"/>
</linearGradient>
<linearGradient id="paint26_linear_248_594" x1="196.156" y1="-32.3712" x2="196.156" y2="475.682" gradientUnits="userSpaceOnUse">
<stop stop-color="white" stop-opacity="0"/>
<stop offset="1" stop-color="#003153"/>
</linearGradient>
<linearGradient id="paint27_linear_248_594" x1="201.539" y1="-33.0984" x2="201.539" y2="477" gradientUnits="userSpaceOnUse">
<stop stop-color="white" stop-opacity="0"/>
<stop offset="1" stop-color="#003153"/>
</linearGradient>
<linearGradient id="paint28_linear_248_594" x1="206.9" y1="-33.8256" x2="206.9" y2="478.325" gradientUnits="userSpaceOnUse">
<stop stop-color="white" stop-opacity="0"/>
<stop offset="1" stop-color="#003153"/>
</linearGradient>
<linearGradient id="paint29_linear_248_594" x1="213.56" y1="-35.0064" x2="213.56" y2="475.092" gradientUnits="userSpaceOnUse">
<stop stop-color="white" stop-opacity="0"/>
<stop offset="1" stop-color="#003153"/>
</linearGradient>
<linearGradient id="paint30_linear_248_594" x1="220.184" y1="-36.1944" x2="220.184" y2="471.859" gradientUnits="userSpaceOnUse">
<stop stop-color="white" stop-opacity="0"/>
<stop offset="1" stop-color="#003153"/>
</linearGradient>
<linearGradient id="paint31_linear_248_594" x1="226.724" y1="-37.3752" x2="226.724" y2="468.648" gradientUnits="userSpaceOnUse">
<stop stop-color="white" stop-opacity="0"/>
<stop offset="1" stop-color="#003153"/>
</linearGradient>
<linearGradient id="paint32_linear_248_594" x1="233.38" y1="-38.556" x2="233.38" y2="465.437" gradientUnits="userSpaceOnUse">
<stop stop-color="white" stop-opacity="0"/>
<stop offset="1" stop-color="#003153"/>
</linearGradient>
<linearGradient id="paint33_linear_248_594" x1="239.909" y1="-39.7368" x2="239.909" y2="462.226" gradientUnits="userSpaceOnUse">
<stop stop-color="white" stop-opacity="0"/>
<stop offset="1" stop-color="#003153"/>
</linearGradient>
<linearGradient id="paint34_linear_248_594" x1="246.077" y1="-40.9176" x2="246.077" y2="459.007" gradientUnits="userSpaceOnUse">
<stop stop-color="white" stop-opacity="0"/>
<stop offset="1" stop-color="#003153"/>
</linearGradient>
<linearGradient id="paint35_linear_248_594" x1="251.923" y1="-42.0984" x2="251.923" y2="455.789" gradientUnits="userSpaceOnUse">
<stop stop-color="white" stop-opacity="0"/>
<stop offset="1" stop-color="#003153"/>
</linearGradient>
<linearGradient id="paint36_linear_248_594" x1="257.71" y1="-43.2792" x2="257.71" y2="452.578" gradientUnits="userSpaceOnUse">
<stop stop-color="white" stop-opacity="0"/>
<stop offset="1" stop-color="#003153"/>
</linearGradient>
<linearGradient id="paint37_linear_248_594" x1="263.441" y1="-44.46" x2="263.441" y2="449.352" gradientUnits="userSpaceOnUse">
<stop stop-color="white" stop-opacity="0"/>
<stop offset="1" stop-color="#003153"/>
</linearGradient>
<linearGradient id="paint38_linear_248_594" x1="269.087" y1="-45.6408" x2="269.087" y2="446.141" gradientUnits="userSpaceOnUse">
<stop stop-color="white" stop-opacity="0"/>
<stop offset="1" stop-color="#003153"/>
</linearGradient>
<linearGradient id="paint39_linear_248_594" x1="274.673" y1="-46.8216" x2="274.673" y2="442.915" gradientUnits="userSpaceOnUse">
<stop stop-color="white" stop-opacity="0"/>
<stop offset="1" stop-color="#003153"/>
</linearGradient>
<linearGradient id="paint40_linear_248_594" x1="280.215" y1="-48.0024" x2="280.215" y2="439.704" gradientUnits="userSpaceOnUse">
<stop stop-color="white" stop-opacity="0"/>
<stop offset="1" stop-color="#003153"/>
</linearGradient>
<linearGradient id="paint41_linear_248_594" x1="285.727" y1="-49.1832" x2="285.727" y2="436.486" gradientUnits="userSpaceOnUse">
<stop stop-color="white" stop-opacity="0"/>
<stop offset="1" stop-color="#003153"/>
</linearGradient>
<linearGradient id="paint42_linear_248_594" x1="291.215" y1="-50.364" x2="291.215" y2="433.274" gradientUnits="userSpaceOnUse">
<stop stop-color="white" stop-opacity="0"/>
<stop offset="1" stop-color="#003153"/>
</linearGradient>
<linearGradient id="paint43_linear_248_594" x1="296.691" y1="-51.5448" x2="296.691" y2="430.049" gradientUnits="userSpaceOnUse">
<stop stop-color="white" stop-opacity="0"/>
<stop offset="1" stop-color="#003153"/>
</linearGradient>
<linearGradient id="paint44_linear_248_594" x1="302.152" y1="-52.7256" x2="302.152" y2="426.845" gradientUnits="userSpaceOnUse">
<stop stop-color="white" stop-opacity="0"/>
<stop offset="1" stop-color="#003153"/>
</linearGradient>
<linearGradient id="paint45_linear_248_594" x1="309.143" y1="-52.3512" x2="309.143" y2="425.599" gradientUnits="userSpaceOnUse">
<stop stop-color="white" stop-opacity="0"/>
<stop offset="1" stop-color="#003153"/>
</linearGradient>
<linearGradient id="paint46_linear_248_594" x1="316.123" y1="-51.9696" x2="316.123" y2="424.375" gradientUnits="userSpaceOnUse">
<stop stop-color="white" stop-opacity="0"/>
<stop offset="1" stop-color="#003153"/>
</linearGradient>
<linearGradient id="paint47_linear_248_594" x1="323.076" y1="-51.5952" x2="323.076" y2="423.137" gradientUnits="userSpaceOnUse">
<stop stop-color="white" stop-opacity="0"/>
<stop offset="1" stop-color="#003153"/>
</linearGradient>
<linearGradient id="paint48_linear_248_594" x1="329.936" y1="-51.2136" x2="329.936" y2="421.913" gradientUnits="userSpaceOnUse">
<stop stop-color="white" stop-opacity="0"/>
<stop offset="1" stop-color="#003153"/>
</linearGradient>
<linearGradient id="paint49_linear_248_594" x1="336.46" y1="-50.8392" x2="336.46" y2="420.674" gradientUnits="userSpaceOnUse">
<stop stop-color="white" stop-opacity="0"/>
<stop offset="1" stop-color="#003153"/>
</linearGradient>
<linearGradient id="paint50_linear_248_594" x1="343.065" y1="-50.4576" x2="343.065" y2="419.443" gradientUnits="userSpaceOnUse">
<stop stop-color="white" stop-opacity="0"/>
<stop offset="1" stop-color="#003153"/>
</linearGradient>
<linearGradient id="paint51_linear_248_594" x1="349.533" y1="-50.076" x2="349.533" y2="418.226" gradientUnits="userSpaceOnUse">
<stop stop-color="white" stop-opacity="0"/>
<stop offset="1" stop-color="#003153"/>
</linearGradient>
<linearGradient id="paint52_linear_248_594" x1="355.965" y1="-49.7016" x2="355.965" y2="416.974" gradientUnits="userSpaceOnUse">
<stop stop-color="white" stop-opacity="0"/>
<stop offset="1" stop-color="#003153"/>
</linearGradient>
<linearGradient id="paint53_linear_248_594" x1="362.345" y1="-49.32" x2="362.345" y2="415.75" gradientUnits="userSpaceOnUse">
<stop stop-color="white" stop-opacity="0"/>
<stop offset="1" stop-color="#003153"/>
</linearGradient>
<linearGradient id="paint54_linear_248_594" x1="368.687" y1="-48.9456" x2="368.687" y2="414.518" gradientUnits="userSpaceOnUse">
<stop stop-color="white" stop-opacity="0"/>
<stop offset="1" stop-color="#003153"/>
</linearGradient>
<linearGradient id="paint55_linear_248_594" x1="376.34" y1="-48.564" x2="376.34" y2="413.287" gradientUnits="userSpaceOnUse">
<stop stop-color="white" stop-opacity="0"/>
<stop offset="1" stop-color="#003153"/>
</linearGradient>
<linearGradient id="paint56_linear_248_594" x1="384.031" y1="-48.1824" x2="384.031" y2="412.049" gradientUnits="userSpaceOnUse">
<stop stop-color="white" stop-opacity="0"/>
<stop offset="1" stop-color="#003153"/>
</linearGradient>
<linearGradient id="paint57_linear_248_594" x1="391.688" y1="-47.808" x2="391.688" y2="410.81" gradientUnits="userSpaceOnUse">
<stop stop-color="white" stop-opacity="0"/>
<stop offset="1" stop-color="#003153"/>
</linearGradient>
<linearGradient id="paint58_linear_248_594" x1="399.334" y1="-47.4264" x2="399.334" y2="409.601" gradientUnits="userSpaceOnUse">
<stop stop-color="white" stop-opacity="0"/>
<stop offset="1" stop-color="#003153"/>
</linearGradient>
<linearGradient id="paint59_linear_248_594" x1="407.355" y1="-47.052" x2="407.355" y2="408.355" gradientUnits="userSpaceOnUse">
<stop stop-color="white" stop-opacity="0"/>
<stop offset="1" stop-color="#003153"/>
</linearGradient>
<linearGradient id="paint60_linear_248_594" x1="415.706" y1="-46.6704" x2="415.706" y2="407.124" gradientUnits="userSpaceOnUse">
<stop stop-color="white" stop-opacity="0"/>
<stop offset="1" stop-color="#003153"/>
</linearGradient>
<linearGradient id="paint61_linear_248_594" x1="423.082" y1="-45.8064" x2="423.082" y2="407.988" gradientUnits="userSpaceOnUse">
<stop stop-color="white" stop-opacity="0"/>
<stop offset="1" stop-color="#003153"/>
</linearGradient>
<linearGradient id="paint62_linear_248_594" x1="430.439" y1="-44.9496" x2="430.439" y2="408.838" gradientUnits="userSpaceOnUse">
<stop stop-color="white" stop-opacity="0"/>
<stop offset="1" stop-color="#003153"/>
</linearGradient>
<linearGradient id="paint63_linear_248_594" x1="437.882" y1="-44.0856" x2="437.882" y2="409.702" gradientUnits="userSpaceOnUse">
<stop stop-color="white" stop-opacity="0"/>
<stop offset="1" stop-color="#003153"/>
</linearGradient>
<linearGradient id="paint64_linear_248_594" x1="444.65" y1="-43.2216" x2="444.65" y2="410.566" gradientUnits="userSpaceOnUse">
<stop stop-color="white" stop-opacity="0"/>
<stop offset="1" stop-color="#003153"/>
</linearGradient>
<linearGradient id="paint65_linear_248_594" x1="451.46" y1="-42.3648" x2="451.46" y2="411.43" gradientUnits="userSpaceOnUse">
<stop stop-color="white" stop-opacity="0"/>
<stop offset="1" stop-color="#003153"/>
</linearGradient>
<linearGradient id="paint66_linear_248_594" x1="458.328" y1="-41.5008" x2="458.328" y2="412.294" gradientUnits="userSpaceOnUse">
<stop stop-color="white" stop-opacity="0"/>
<stop offset="1" stop-color="#003153"/>
</linearGradient>
<linearGradient id="paint67_linear_248_594" x1="465.284" y1="-40.6368" x2="465.284" y2="413.165" gradientUnits="userSpaceOnUse">
<stop stop-color="white" stop-opacity="0"/>
<stop offset="1" stop-color="#003153"/>
</linearGradient>
<linearGradient id="paint68_linear_248_594" x1="472.344" y1="-39.78" x2="472.344" y2="414.014" gradientUnits="userSpaceOnUse">
<stop stop-color="white" stop-opacity="0"/>
<stop offset="1" stop-color="#003153"/>
</linearGradient>
<linearGradient id="paint69_linear_248_594" x1="1.45449" y1="-39.8448" x2="1.45449" y2="413.95" gradientUnits="userSpaceOnUse">
<stop stop-color="white" stop-opacity="0"/>
<stop offset="1" stop-color="#003153"/>
</linearGradient>
<linearGradient id="paint70_linear_248_594" x1="-3.27942" y1="-41.616" x2="-3.27942" y2="412.171" gradientUnits="userSpaceOnUse">
<stop stop-color="white" stop-opacity="0"/>
<stop offset="1" stop-color="#003153"/>
</linearGradient>
<linearGradient id="paint71_linear_248_594" x1="-8.76239" y1="-43.3944" x2="-8.76239" y2="410.4" gradientUnits="userSpaceOnUse">
<stop stop-color="white" stop-opacity="0"/>
<stop offset="1" stop-color="#003153"/>
</linearGradient>
<linearGradient id="paint72_linear_248_594" x1="-14.2586" y1="-45.1656" x2="-14.2586" y2="408.629" gradientUnits="userSpaceOnUse">
<stop stop-color="white" stop-opacity="0"/>
<stop offset="1" stop-color="#003153"/>
</linearGradient>
<clipPath id="clip0_248_594">
<rect width="460" height="260" fill="white"/>
</clipPath>
</defs>
</svg>
