<svg width="659" height="560" viewBox="0 0 659 560" fill="none" xmlns="http://www.w3.org/2000/svg">
<g clip-path="url(#clip0_248_975)">
<mask id="mask0_248_975" style="mask-type:luminance" maskUnits="userSpaceOnUse" x="-206" y="-76" width="1072" height="713">
<path d="M865.363 -76H-206V636.689H865.363V-76Z" fill="white"/>
</mask>
<g mask="url(#mask0_248_975)">
<path d="M-51.2808 -141.411C-51.2808 -141.411 -69.0511 -87.9019 -78.3934 -28.934C-86.7215 23.5769 -54.2235 25.3871 -36.7388 56.9593C-14.3402 97.383 -32.7391 121.515 -47.5382 157.805C-58.1946 183.918 -37.2102 196.903 -29.7821 255.586C-21.9397 317.575 -44.2384 336.02 -41.6099 407.845C-38.8815 482.563 -49.838 504.343 -65.637 590.821C-80.4361 671.839 -86.5786 688.758 10.844 776.59" stroke="url(#paint0_linear_248_975)" stroke-linecap="round" stroke-linejoin="round"/>
<path d="M-34.9247 -138.717C-34.9247 -138.717 -62.0516 -80.7322 -67.4656 -21.579C-72.1367 29.478 -40.3815 34.2673 -21.297 64.8559C4.15857 105.65 -11.4262 130.324 -28.6394 168.096C-40.3244 193.753 -30.9107 210.487 -17.6115 267.587C-3.06955 330.076 -20.2828 348.335 -24.8254 419.405C-29.5965 494.194 -45.4098 518.041 -54.0521 602.338C-61.9659 679.536 -70.1511 692.151 31.8854 783.204" stroke="url(#paint1_linear_248_975)" stroke-linecap="round" stroke-linejoin="round"/>
<path d="M-18.5686 -136.023C-18.5686 -136.023 -55.1664 -73.6053 -56.5234 -14.2241C-57.6519 35.3649 -26.4681 43.1189 -5.85512 72.7525C22.7288 113.846 9.9582 139.161 -9.74059 178.387C-22.397 203.602 -24.3968 224.028 -5.44087 279.589C16.0292 342.52 3.58715 360.65 -8.02642 430.95C-20.3971 505.811 -41.1101 531.653 -42.4529 613.84C-43.6385 687.176 -53.7093 695.529 52.927 789.818" stroke="url(#paint2_linear_248_975)" stroke-linecap="round" stroke-linejoin="round"/>
<path d="M-2.21242 -133.329C-2.21242 -133.329 -48.4382 -66.4785 -45.5955 -6.88339C-43.3099 41.2231 -12.5118 51.8992 9.57257 80.6348C41.3563 121.971 31.4141 148.055 9.14402 188.679C-4.44086 213.48 -17.7543 237.469 6.70131 291.605C35.2853 354.878 27.3429 372.951 8.72977 442.524C-11.3261 517.428 -37.0531 545.265 -30.8821 625.372C-25.5396 694.802 -37.2817 698.936 73.94 796.446" stroke="url(#paint3_linear_248_975)" stroke-linecap="round" stroke-linejoin="round"/>
<path d="M14.1436 -130.635C14.1436 -130.635 -41.8529 -59.3231 -34.6677 0.471549C-29.068 47.1099 1.47298 60.6653 25.0001 88.5314C103.395 181.381 -36.8247 205.07 18.8719 303.607C54.7411 367.065 51.0699 385.21 25.5144 454.07C-2.29822 528.988 -33.2106 558.864 -19.2972 636.874C-7.6122 702.413 -20.8542 702.299 94.9672 803.059" stroke="url(#paint4_linear_248_975)" stroke-linecap="round" stroke-linejoin="round"/>
<path d="M30.4997 -127.941C30.4997 -127.941 -35.4105 -52.1249 -23.7255 7.82654C-14.9118 53.0538 15.5007 69.3744 40.4563 96.4281C131.508 195.164 -31.5536 223.714 31.0568 315.623C74.3113 379.109 74.7685 397.425 42.3133 465.644C6.7012 540.505 -29.5823 572.59 -7.68363 648.42C10.1438 710.153 -4.38385 705.72 116.023 809.702" stroke="url(#paint5_linear_248_975)" stroke-linecap="round" stroke-linejoin="round"/>
<path d="M46.8559 -125.247C46.8559 -125.247 -29.1109 -44.8269 -12.7976 15.1672C-0.869765 59.0261 29.5427 78.0407 55.8839 104.31C159.906 208.049 -26.0682 241.047 43.199 327.61C93.8958 390.968 98.3956 409.555 59.0694 477.175C15.6149 551.922 -26.2539 586.445 3.8728 659.909C27.6856 717.978 12.0152 709.084 137.022 816.287" stroke="url(#paint6_linear_248_975)" stroke-linecap="round" stroke-linejoin="round"/>
<path d="M63.212 -122.553C63.212 -122.553 -22.9541 -37.4292 -1.85541 22.5222C13.1294 65.1125 43.5846 86.6642 71.3258 112.207C188.576 220.179 -20.2114 255.971 56.941 339.626C115.109 402.699 122.037 421.657 75.8684 488.749C24.5573 563.311 -23.0541 600.584 15.4864 671.44C45.1846 726.032 28.4856 712.491 158.092 822.929" stroke="url(#paint7_linear_248_975)" stroke-linecap="round" stroke-linejoin="round"/>
<path d="M79.554 -119.859C79.554 -119.859 -16.8972 -29.889 9.05832 29.8771C27.0429 71.2986 57.6125 95.2592 86.7392 120.104C211.232 226.294 -14.7402 268.6 70.6403 350.117C136.265 412.777 145.65 433.701 92.6246 500.309C33.4425 574.643 -19.997 614.995 27.0429 682.957C62.5693 734.299 44.8847 715.883 179.091 829.543" stroke="url(#paint8_linear_248_975)" stroke-linecap="round" stroke-linejoin="round"/>
<path d="M90.0676 -121.299C90.0676 -121.299 2.00159 -36.4457 24.0002 23.4772C39.5564 65.8394 71.0831 87.9898 99.0814 113.39C216.603 220.037 2.31586 261.843 80.1825 344.187C139.75 407.189 150.835 427.786 103.381 494.778C50.5843 569.311 -7.41211 607.554 32.6997 677.897C63.4835 731.862 58.7553 721.072 189.219 832.108" stroke="url(#paint9_linear_248_975)" stroke-linecap="round" stroke-linejoin="round"/>
<path d="M100.581 -122.752C100.581 -122.752 20.8433 -42.917 38.9279 17.0772C52.0128 60.4515 84.5251 80.6918 111.395 106.691C220.074 211.827 21.4718 252.393 92.8103 336.761C146.307 400.019 155.992 421.856 114.095 489.276C67.6833 563.966 9.80115 600.342 43.0563 672.851C69.0832 729.595 72.5973 726.274 199.318 834.703" stroke="url(#paint10_linear_248_975)" stroke-linecap="round" stroke-linejoin="round"/>
<path d="M111.095 -124.192C111.095 -124.192 39.5993 -49.3026 53.8699 10.6915C64.4407 55.1348 97.9957 73.3939 123.737 99.9915C220.902 200.452 40.4993 242.429 105.481 329.321C152.921 392.75 161.178 415.884 124.851 483.76C84.8251 558.564 31.6855 593.272 58.1982 667.805C79.4112 727.457 86.4679 731.491 209.46 837.283" stroke="url(#paint11_linear_248_975)" stroke-linecap="round" stroke-linejoin="round"/>
<path d="M121.608 -125.632C121.608 -125.632 58.2694 -55.617 68.7974 4.30588C76.8111 49.8752 111.452 66.0533 136.05 93.3065C222.559 189.163 59.3694 231.796 118.109 321.909C159.506 385.409 166.306 409.897 135.579 478.273C101.924 553.148 51.8413 586.388 71.7257 662.774C88.039 725.448 100.31 736.708 219.574 839.877" stroke="url(#paint12_linear_248_975)" stroke-linecap="round" stroke-linejoin="round"/>
<path d="M132.122 -127.086C132.122 -127.086 76.8255 -61.8888 83.7393 -2.10841C89.139 44.6155 124.951 58.6555 148.393 86.5786C224.416 177.133 78.1254 220.094 130.779 314.454C166.191 377.912 171.463 403.839 146.335 472.742C119.009 547.66 75.0113 579.56 88.439 657.714C99.7383 723.495 114.18 741.896 229.716 842.457" stroke="url(#paint13_linear_248_975)" stroke-linecap="round" stroke-linejoin="round"/>
<path d="M142.636 -128.525C142.636 -128.525 95.2957 -68.1177 98.6812 -8.49413C101.395 39.4271 138.45 51.272 160.72 79.8936C226.973 165.031 96.5099 206.31 143.421 307.028C172.905 370.329 176.562 397.767 157.063 467.24C136.036 542.158 93.253 572.818 100.381 652.682C106.538 721.613 128.022 747.127 239.815 845.051" stroke="url(#paint14_linear_248_975)" stroke-linecap="round" stroke-linejoin="round"/>
<path d="M153.135 -129.965C153.135 -129.965 113.652 -74.3323 113.595 -14.8798C113.538 34.2388 151.95 43.8458 173.02 73.1943C229.93 152.431 114.88 189.976 156.049 299.601C179.719 362.646 181.591 391.681 167.777 461.738C153.007 536.613 114.495 566.104 115.48 647.636C116.352 719.746 141.85 752.33 249.915 847.631" stroke="url(#paint15_linear_248_975)" stroke-linecap="round" stroke-linejoin="round"/>
<path d="M163.649 -131.419C163.649 -131.419 131.937 -80.5469 128.537 -21.2797C125.651 29.0504 165.506 36.3768 185.362 66.4951C234.587 141.128 133.008 167.654 168.706 292.175C186.69 354.892 186.619 385.566 178.519 456.236C169.948 531.054 134.036 559.362 129.022 642.604C124.494 717.879 155.707 757.561 260.043 850.225" stroke="url(#paint16_linear_248_975)" stroke-linecap="round" stroke-linejoin="round"/>
<path d="M174.162 -132.858C174.162 -132.858 150.121 -86.7758 143.464 -27.6797C137.664 23.8478 179.09 28.8936 197.675 59.7815C222.159 100.462 202.046 123.311 187.29 161.283C170.605 204.215 169.862 227.135 181.347 284.735C193.775 347.067 191.561 379.423 189.261 450.72C186.847 525.481 158.192 552.578 147.307 637.544C137.25 715.94 169.577 762.75 270.171 852.805" stroke="url(#paint17_linear_248_975)" stroke-linecap="round" stroke-linejoin="round"/>
<path d="M184.676 -134.298C184.676 -134.298 168.234 -93.0047 158.406 -34.0654C149.621 18.6309 192.718 21.3961 210.017 53.0965C232.044 93.4775 209.631 115.899 196.604 152.531C180.476 197.901 187.333 218.44 194.004 277.308C201.018 339.241 196.475 373.308 200.004 445.218C203.675 519.922 179.105 545.764 162.42 632.513C146.75 714.002 183.419 767.966 280.284 855.399" stroke="url(#paint18_linear_248_975)" stroke-linecap="round" stroke-linejoin="round"/>
<path d="M195.19 -135.752C195.19 -135.752 186.29 -99.3049 173.348 -40.4653C161.506 13.3713 206.403 13.8559 222.345 46.383C241.973 86.4362 217.274 108.487 205.903 143.765C190.476 191.615 204.932 209.731 206.66 269.868C208.418 331.416 201.332 367.193 210.746 439.702C233.087 611.774 62.5122 650.458 290.412 857.979" stroke="url(#paint19_linear_248_975)" stroke-linecap="round" stroke-linejoin="round"/>
<path d="M205.703 -137.192C205.703 -137.192 204.275 -105.619 188.276 -46.851C173.32 8.09728 220.131 6.31556 234.673 39.6979C251.958 79.409 225.002 101.103 215.203 135.013C200.646 185.357 222.688 201.093 219.302 262.442C215.931 323.648 206.118 361.106 221.474 434.2C258.314 609.607 65.8404 644.828 300.512 860.573" stroke="url(#paint20_linear_248_975)" stroke-linecap="round" stroke-linejoin="round"/>
<path d="M216.217 -138.631C216.217 -138.631 222.231 -111.977 203.218 -53.251C185.09 2.76637 233.944 -1.23895 247.001 32.9844C262.014 72.3533 232.802 93.6912 224.502 126.247C211.017 179.128 240.558 192.498 231.959 255.001C223.559 315.95 210.889 355.063 232.216 428.684C283.084 604.29 68.9404 638.67 310.64 863.139" stroke="url(#paint21_linear_248_975)" stroke-linecap="round" stroke-linejoin="round"/>
<path d="M226.731 -140.085C226.731 -140.085 240.144 -118.405 218.145 -59.6509C196.79 -2.6215 247.815 -8.80765 259.314 26.2709C272.128 65.2978 240.644 86.2508 233.787 117.467C221.602 172.9 258.529 184.003 244.587 247.547C231.245 308.353 215.603 349.034 242.944 423.153C270.499 497.9 255.872 517.784 216.56 612.301C177.791 705.521 238.816 788.777 320.753 865.705" stroke="url(#paint22_linear_248_975)" stroke-linecap="round" stroke-linejoin="round"/>
<path d="M237.23 -141.525C237.23 -141.525 258.029 -124.862 233.073 -66.0366C208.46 -8.02368 261.743 -16.3621 271.642 19.5859C282.299 58.2849 248.558 78.7961 243.087 108.729C232.473 166.713 276.585 175.665 257.243 240.135C239.001 300.899 220.331 343.09 253.686 417.666C287.155 492.526 275.013 510.671 230.102 607.284C185.462 703.297 252.686 794.008 330.867 868.313" stroke="url(#paint23_linear_248_975)" stroke-linecap="round" stroke-linejoin="round"/>
<path d="M247.744 -142.964C247.744 -142.964 275.899 -131.362 248.001 -72.4223C220.102 -13.4829 275.756 -23.8882 283.956 12.8866C292.527 51.2863 256.515 71.2843 252.372 99.9629C243.615 160.499 294.684 167.398 269.871 232.708C246.758 293.544 225.016 337.16 264.4 412.178C303.783 487.181 294.126 503.502 243.615 602.266C193.104 701.031 266.514 799.254 340.966 870.936" stroke="url(#paint24_linear_248_975)" stroke-linecap="round" stroke-linejoin="round"/>
<path d="M261.028 -145.302C261.028 -145.302 281.827 -128.639 256.872 -69.8138C232.259 -11.8009 285.541 -20.1394 295.441 15.8087C306.097 54.5077 272.356 75.0189 266.885 104.952C256.272 162.936 300.383 171.888 281.042 236.357C262.8 297.121 244.129 339.313 277.485 413.888C310.954 488.749 298.812 506.894 253.9 603.506C209.26 699.52 276.485 790.231 354.666 864.536" stroke="url(#paint25_linear_248_975)" stroke-linecap="round" stroke-linejoin="round"/>
<path d="M274.299 -147.654C274.299 -147.654 287.712 -125.974 265.714 -67.2197C244.358 -10.1903 295.369 -16.3764 306.883 18.7022C319.696 57.729 288.212 78.6821 281.356 109.898C269.171 165.331 306.097 176.434 292.155 239.978C278.813 300.784 263.171 341.465 290.512 415.584C318.068 490.331 303.44 510.215 264.128 604.732C225.359 697.952 286.384 781.208 368.322 858.136" stroke="url(#paint26_linear_248_975)" stroke-linecap="round" stroke-linejoin="round"/>
<path d="M287.584 -149.991C287.584 -149.991 293.598 -123.337 274.585 -64.6112C256.457 -8.59388 305.311 -12.5992 318.368 21.6241C333.381 60.9931 304.169 82.331 295.869 114.887C282.384 167.768 311.925 181.138 303.326 243.641C294.926 304.59 282.256 343.703 303.583 417.323C354.451 592.93 140.307 627.31 382.007 851.779" stroke="url(#paint27_linear_248_975)" stroke-linecap="round" stroke-linejoin="round"/>
<path d="M300.869 -152.329C300.869 -152.329 299.44 -120.757 283.441 -61.9885C268.485 -7.0402 315.311 -8.82193 329.838 24.5462C347.137 64.2572 320.168 85.9515 310.368 119.861C295.812 170.206 317.854 185.942 314.468 247.29C311.097 308.496 301.283 345.955 316.639 419.048C353.48 594.455 161.006 629.676 395.677 845.421" stroke="url(#paint28_linear_248_975)" stroke-linecap="round" stroke-linejoin="round"/>
<path d="M314.139 -154.667C314.139 -154.667 305.24 -118.22 292.298 -59.3801C280.456 -5.54352 325.353 -5.0589 341.295 27.4682C360.922 67.5214 336.224 89.572 324.853 124.85C309.425 172.7 323.882 190.817 325.61 250.953C327.367 312.501 320.282 348.278 329.696 420.787C352.037 592.859 181.462 631.544 409.362 839.064" stroke="url(#paint29_linear_248_975)" stroke-linecap="round" stroke-linejoin="round"/>
<path d="M327.425 -157.004C327.425 -157.004 310.983 -115.711 301.155 -56.7717C292.369 -4.07542 335.467 -1.31019 352.766 30.3902C374.793 70.7712 352.38 93.1924 339.352 129.825C323.21 175.194 330.081 195.734 336.752 254.602C343.766 316.535 339.224 350.601 342.752 422.512C346.423 497.216 321.853 523.058 305.169 609.807C289.498 691.295 326.167 745.26 423.033 832.693" stroke="url(#paint30_linear_248_975)" stroke-linecap="round" stroke-linejoin="round"/>
<path d="M340.709 -159.342C340.709 -159.342 316.668 -113.259 310.011 -54.1632C304.212 -2.63575 345.638 2.41007 364.222 33.298C388.706 73.9783 368.593 96.8271 353.837 134.799C337.152 177.732 336.41 200.652 347.895 258.251C360.322 320.583 358.108 352.939 355.808 424.237C353.394 498.998 326.324 526.094 315.425 611.061C305.369 689.457 336.11 736.266 436.703 826.322" stroke="url(#paint31_linear_248_975)" stroke-linecap="round" stroke-linejoin="round"/>
<path d="M353.98 -161.679C353.98 -161.679 322.267 -110.808 318.868 -51.5405C315.982 -1.21041 355.837 6.11604 375.693 36.2343C424.918 110.867 323.339 137.393 359.037 261.914C377.021 324.631 376.95 355.305 368.85 425.975C360.279 500.794 330.681 529.102 325.667 612.344C321.139 687.618 346.037 727.3 450.36 819.964" stroke="url(#paint32_linear_248_975)" stroke-linecap="round" stroke-linejoin="round"/>
<path d="M367.265 -164.017C367.265 -164.017 327.781 -108.385 327.724 -48.9321C327.681 0.186465 366.079 9.79352 387.149 39.1421C444.06 118.379 329.01 155.923 370.179 265.549C393.849 328.594 395.72 357.629 381.907 427.686C367.136 502.561 334.938 532.052 335.924 613.584C336.795 685.694 355.98 718.278 464.045 813.579" stroke="url(#paint33_linear_248_975)" stroke-linecap="round" stroke-linejoin="round"/>
<path d="M380.535 -166.355C380.535 -166.355 333.195 -105.947 336.581 -46.3236C339.295 1.59758 376.35 13.4425 398.62 42.0641C464.873 127.202 334.41 168.481 381.321 269.198C410.805 332.499 414.462 359.938 394.963 429.411C373.936 504.328 339.052 534.988 346.18 614.852C352.337 683.784 365.922 709.298 477.715 807.221" stroke="url(#paint34_linear_248_975)" stroke-linecap="round" stroke-linejoin="round"/>
<path d="M393.82 -168.692C393.82 -168.692 338.524 -103.496 345.438 -43.7152C350.837 3.00871 386.649 17.0487 410.091 44.9718C486.115 135.526 339.824 178.487 392.478 272.847C427.89 336.305 433.161 362.233 408.034 431.135C380.707 506.053 343.038 537.953 356.451 616.107C367.75 681.888 375.879 700.289 491.4 800.836" stroke="url(#paint35_linear_248_975)" stroke-linecap="round" stroke-linejoin="round"/>
<path d="M407.105 -171.03C407.105 -171.03 343.766 -101.015 354.294 -41.0925C362.308 4.47688 396.949 20.6549 421.547 47.9082C508.056 143.765 344.866 186.398 403.606 276.51C445.003 340.011 451.803 364.499 421.076 432.874C387.421 507.749 346.809 540.989 366.694 617.375C383.007 680.049 385.807 691.31 505.071 794.479" stroke="url(#paint36_linear_248_975)" stroke-linecap="round" stroke-linejoin="round"/>
<path d="M420.376 -173.368C420.376 -173.368 348.88 -98.4782 363.151 -38.4841C373.721 5.95923 407.277 24.2183 433.018 50.8159C530.183 151.277 349.78 193.254 414.762 280.145C462.202 343.574 470.458 366.708 434.132 434.585C394.106 509.389 350.451 544.097 376.95 618.63C398.163 678.282 395.749 682.315 518.741 788.107" stroke="url(#paint37_linear_248_975)" stroke-linecap="round" stroke-linejoin="round"/>
<path d="M433.661 -175.705C433.661 -175.705 353.923 -95.8697 372.008 -35.8755C385.092 7.49872 417.605 27.7391 444.474 53.738C553.154 158.874 354.551 199.44 425.89 283.808C479.387 347.067 489.072 368.903 447.174 436.324C400.763 511.014 353.937 547.389 387.192 619.898C413.219 676.643 405.663 673.321 532.398 781.75" stroke="url(#paint38_linear_248_975)" stroke-linecap="round" stroke-linejoin="round"/>
<path d="M446.931 -178.043C446.931 -178.043 358.865 -93.1901 380.864 -33.2672C396.42 9.09505 427.947 31.2454 455.945 56.6457C575.723 165.331 359.408 205.341 437.046 287.443C496.614 350.445 507.699 371.041 460.245 438.034C407.448 512.567 357.351 550.81 397.463 621.152C428.247 675.117 415.619 664.327 546.082 775.364" stroke="url(#paint39_linear_248_975)" stroke-linecap="round" stroke-linejoin="round"/>
<path d="M460.216 -180.38C460.216 -180.38 363.765 -90.4105 389.721 -30.6444C407.705 10.7771 438.275 34.7377 467.402 59.5821C598.951 171.788 364.308 211.057 448.174 291.121C513.799 353.78 526.312 373.18 473.287 439.788C414.105 514.121 360.665 554.473 407.705 622.435C443.232 673.778 425.547 655.362 559.753 769.021" stroke="url(#paint40_linear_248_975)" stroke-linecap="round" stroke-linejoin="round"/>
<path d="M473.301 -179.639C473.301 -179.639 385.221 -93.6176 407.205 -33.6947C422.761 8.6675 453.231 30.6896 481.229 56.0898C602.722 166.343 380.721 206.125 464.516 286.117C530.14 348.777 539.24 369.231 486.215 435.853C427.032 510.187 378.521 549.641 426.647 619.029C462.216 670.342 447.274 654.065 569.038 766.555" stroke="url(#paint41_linear_248_975)" stroke-linecap="round" stroke-linejoin="round"/>
<path d="M486.386 -178.884C486.386 -178.884 406.605 -96.7107 424.704 -36.7166C437.789 6.65769 468.201 26.6415 495.071 52.6261C607.036 160.955 396.649 200.751 480.872 281.157C546.497 343.817 552.196 365.34 499.157 431.948C395.177 562.555 380.207 562.413 578.323 764.132" stroke="url(#paint42_linear_248_975)" stroke-linecap="round" stroke-linejoin="round"/>
<path d="M499.457 -178.143C499.457 -178.143 427.904 -99.7468 442.174 -39.7669C452.745 4.67643 483.143 22.5364 508.885 49.134C612.207 155.966 412.076 194.907 497.185 276.154C562.81 338.799 565.095 361.392 512.07 428.014C407.934 558.821 407.048 556.455 587.594 761.681" stroke="url(#paint43_linear_248_975)" stroke-linecap="round" stroke-linejoin="round"/>
<path d="M512.542 -177.387C512.542 -177.387 449.131 -102.697 459.673 -42.7887C467.687 2.78066 498.128 18.4313 522.727 45.6703C615.592 148.568 429.204 190.66 513.542 271.194C579.166 333.853 578.052 357.5 525.012 424.108C421.676 553.903 432.589 547.289 596.879 759.257" stroke="url(#paint44_linear_248_975)" stroke-linecap="round" stroke-linejoin="round"/>
<path d="M525.627 -176.646C525.627 -176.646 470.259 -105.619 477.158 -45.839C482.558 0.884883 513.113 14.2692 536.555 42.1923C620.407 142.069 445.389 185.543 529.884 266.205C595.508 328.85 590.98 353.566 537.954 420.188C432.847 552.221 460.845 539.321 606.179 756.806" stroke="url(#paint45_linear_248_975)" stroke-linecap="round" stroke-linejoin="round"/>
<path d="M538.711 -175.891C538.711 -175.891 491.271 -108.484 494.657 -48.8608C497.371 -0.939626 528.112 10.1071 550.396 38.7287C625.52 135.27 461.43 180.283 546.239 261.23C611.864 323.876 603.922 349.661 550.896 416.269C491.714 490.602 467.83 525.552 521.355 602.109C557.096 653.309 555.896 647.779 615.478 754.368" stroke="url(#paint46_linear_248_975)" stroke-linecap="round" stroke-linejoin="round"/>
<path d="M551.796 -175.135C551.796 -175.135 512.199 -111.335 512.142 -51.8826C512.099 -2.76407 543.14 5.91648 564.21 35.265C630.892 128.114 477.301 174.881 562.553 256.27C628.178 318.93 616.835 345.755 563.81 412.377C504.628 486.711 485.658 520.763 540.269 598.746C576.052 649.931 577.581 646.538 624.735 751.959" stroke="url(#paint47_linear_248_975)" stroke-linecap="round" stroke-linejoin="round"/>
<path d="M564.867 -174.394C564.867 -174.394 533.026 -114.2 529.626 -54.9329C526.741 -4.60279 558.182 1.66887 578.038 31.7729C636.591 120.56 493.043 169.308 578.895 251.267C644.519 313.927 629.763 341.821 576.738 408.429C517.556 482.763 503.514 515.917 559.21 595.325C595.022 646.482 599.308 645.241 634.02 749.479" stroke="url(#paint48_linear_248_975)" stroke-linecap="round" stroke-linejoin="round"/>
<path d="M577.952 -173.638C577.952 -173.638 553.768 -117.051 547.111 -57.9547C541.311 -6.4273 573.266 -2.5788 591.865 28.3091C642.676 112.72 508.57 163.578 595.237 246.306C660.861 308.966 642.705 337.916 589.665 404.538C530.483 478.871 521.37 511.128 578.138 591.961C613.993 643.089 621.021 644.001 643.291 747.056" stroke="url(#paint49_linear_248_975)" stroke-linecap="round" stroke-linejoin="round"/>
<path d="M591.037 -172.897C534.026 8.90979 579.28 -23.5888 605.693 24.8313C648.605 103.484 524.298 158.004 611.579 241.318C677.203 303.977 655.633 333.996 602.608 400.604C543.426 474.937 539.24 506.295 597.094 588.568C632.977 639.682 642.748 642.733 652.59 744.619" stroke="url(#paint50_linear_248_975)" stroke-linecap="round" stroke-linejoin="round"/>
<path d="M604.122 -172.142C604.122 -172.142 595.037 -122.866 582.095 -64.0268C570.252 -10.1902 603.593 -11.1738 619.535 21.3534C655.504 94.7604 539.212 151.647 627.92 236.343C693.545 299.003 668.561 330.076 615.535 396.698C556.353 471.032 557.082 501.478 616.021 585.19C651.947 636.276 664.461 641.478 661.861 742.181" stroke="url(#paint51_linear_248_975)" stroke-linecap="round" stroke-linejoin="round"/>
<path d="M617.192 -171.386C617.192 -171.386 615.564 -125.817 599.565 -67.0486C584.609 -12.1003 618.821 -15.4784 633.349 17.8897C663.347 86.7782 553.125 144.378 644.248 231.369C709.872 294.028 681.488 326.17 628.463 392.778C569.281 467.112 574.938 496.66 634.948 581.798C670.903 632.869 686.174 640.21 671.146 739.73" stroke="url(#paint52_linear_248_975)" stroke-linecap="round" stroke-linejoin="round"/>
<path d="M630.277 -170.645C630.277 -170.645 636.077 -128.824 617.064 -70.0989C598.936 -14.0815 634.134 -19.8258 647.176 14.3975C662.19 53.7665 636.577 76.7293 627.506 109.085C619.821 136.495 609.464 177.575 660.575 226.366C726.2 289.025 694.402 322.222 641.377 388.844C582.195 463.178 592.78 491.828 653.876 578.391C689.874 629.434 707.887 638.927 680.417 737.278" stroke="url(#paint53_linear_248_975)" stroke-linecap="round" stroke-linejoin="round"/>
<path d="M643.362 -169.89C643.362 -169.89 656.547 -131.875 634.548 -73.1207C613.193 -16.0914 649.49 -24.1447 661.004 10.9481C673.817 49.9749 645.905 72.5814 638.534 103.697C631.934 131.535 625.806 172.629 676.932 221.434C742.556 284.093 707.358 318.359 654.333 384.967C595.151 459.301 610.65 487.053 672.832 575.056C708.858 626.07 729.614 637.701 689.716 734.883" stroke="url(#paint54_linear_248_975)" stroke-linecap="round" stroke-linejoin="round"/>
<path d="M656.447 -169.148C656.447 -169.148 676.989 -134.982 652.047 -76.1711C627.435 -18.1582 664.947 -28.4922 674.846 7.45588C685.502 46.1549 655.304 68.3766 649.562 98.2525C644.134 126.503 642.162 167.626 693.273 216.431C758.898 279.09 720.286 314.411 667.261 381.033C608.079 455.367 628.506 482.221 691.773 571.649C727.828 622.649 751.341 636.433 699.002 732.417" stroke="url(#paint55_linear_248_975)" stroke-linecap="round" stroke-linejoin="round"/>
<path d="M669.532 -168.393C669.532 -168.393 697.43 -138.132 669.532 -79.1928C641.634 -20.2534 680.474 -32.7967 688.674 3.99227C697.245 42.392 664.747 64.1717 660.575 92.8361C656.404 121.515 658.49 162.651 709.615 211.456C775.24 274.116 733.228 310.506 680.188 377.114C621.006 451.447 646.362 477.403 710.701 568.257C746.799 619.228 773.054 635.164 708.272 729.98" stroke="url(#paint56_linear_248_975)" stroke-linecap="round" stroke-linejoin="round"/>
</g>
</g>
<defs>
<linearGradient id="paint0_linear_248_975" x1="-34.445" y1="-141.411" x2="-34.445" y2="776.59" gradientUnits="userSpaceOnUse">
<stop stop-color="white" stop-opacity="0"/>
<stop offset="1" stop-color="#003153"/>
</linearGradient>
<linearGradient id="paint1_linear_248_975" x1="-18.0216" y1="-138.717" x2="-18.0216" y2="783.204" gradientUnits="userSpaceOnUse">
<stop stop-color="white" stop-opacity="0"/>
<stop offset="1" stop-color="#003153"/>
</linearGradient>
<linearGradient id="paint2_linear_248_975" x1="-1.81312" y1="-136.023" x2="-1.81312" y2="789.818" gradientUnits="userSpaceOnUse">
<stop stop-color="white" stop-opacity="0"/>
<stop offset="1" stop-color="#003153"/>
</linearGradient>
<linearGradient id="paint3_linear_248_975" x1="14.1093" y1="-133.329" x2="14.1093" y2="796.446" gradientUnits="userSpaceOnUse">
<stop stop-color="white" stop-opacity="0"/>
<stop offset="1" stop-color="#003153"/>
</linearGradient>
<linearGradient id="paint4_linear_248_975" x1="29.8314" y1="-130.635" x2="29.8314" y2="803.059" gradientUnits="userSpaceOnUse">
<stop stop-color="white" stop-opacity="0"/>
<stop offset="1" stop-color="#003153"/>
</linearGradient>
<linearGradient id="paint5_linear_248_975" x1="45.4545" y1="-127.941" x2="45.4545" y2="809.702" gradientUnits="userSpaceOnUse">
<stop stop-color="white" stop-opacity="0"/>
<stop offset="1" stop-color="#003153"/>
</linearGradient>
<linearGradient id="paint6_linear_248_975" x1="60.9641" y1="-125.247" x2="60.9641" y2="816.287" gradientUnits="userSpaceOnUse">
<stop stop-color="white" stop-opacity="0"/>
<stop offset="1" stop-color="#003153"/>
</linearGradient>
<linearGradient id="paint7_linear_248_975" x1="76.455" y1="-122.553" x2="76.455" y2="822.929" gradientUnits="userSpaceOnUse">
<stop stop-color="white" stop-opacity="0"/>
<stop offset="1" stop-color="#003153"/>
</linearGradient>
<linearGradient id="paint8_linear_248_975" x1="91.8571" y1="-119.859" x2="91.8571" y2="829.543" gradientUnits="userSpaceOnUse">
<stop stop-color="white" stop-opacity="0"/>
<stop offset="1" stop-color="#003153"/>
</linearGradient>
<linearGradient id="paint9_linear_248_975" x1="104.276" y1="-121.299" x2="104.276" y2="832.108" gradientUnits="userSpaceOnUse">
<stop stop-color="white" stop-opacity="0"/>
<stop offset="1" stop-color="#003153"/>
</linearGradient>
<linearGradient id="paint10_linear_248_975" x1="116.264" y1="-122.752" x2="116.264" y2="834.703" gradientUnits="userSpaceOnUse">
<stop stop-color="white" stop-opacity="0"/>
<stop offset="1" stop-color="#003153"/>
</linearGradient>
<linearGradient id="paint11_linear_248_975" x1="130.267" y1="-124.192" x2="130.267" y2="837.283" gradientUnits="userSpaceOnUse">
<stop stop-color="white" stop-opacity="0"/>
<stop offset="1" stop-color="#003153"/>
</linearGradient>
<linearGradient id="paint12_linear_248_975" x1="143.387" y1="-125.632" x2="143.387" y2="839.877" gradientUnits="userSpaceOnUse">
<stop stop-color="white" stop-opacity="0"/>
<stop offset="1" stop-color="#003153"/>
</linearGradient>
<linearGradient id="paint13_linear_248_975" x1="156.429" y1="-127.086" x2="156.429" y2="842.457" gradientUnits="userSpaceOnUse">
<stop stop-color="white" stop-opacity="0"/>
<stop offset="1" stop-color="#003153"/>
</linearGradient>
<linearGradient id="paint14_linear_248_975" x1="169.162" y1="-128.525" x2="169.162" y2="845.051" gradientUnits="userSpaceOnUse">
<stop stop-color="white" stop-opacity="0"/>
<stop offset="1" stop-color="#003153"/>
</linearGradient>
<linearGradient id="paint15_linear_248_975" x1="181.755" y1="-129.965" x2="181.755" y2="847.631" gradientUnits="userSpaceOnUse">
<stop stop-color="white" stop-opacity="0"/>
<stop offset="1" stop-color="#003153"/>
</linearGradient>
<linearGradient id="paint16_linear_248_975" x1="194.216" y1="-131.419" x2="194.216" y2="850.225" gradientUnits="userSpaceOnUse">
<stop stop-color="white" stop-opacity="0"/>
<stop offset="1" stop-color="#003153"/>
</linearGradient>
<linearGradient id="paint17_linear_248_975" x1="206.542" y1="-132.858" x2="206.542" y2="852.805" gradientUnits="userSpaceOnUse">
<stop stop-color="white" stop-opacity="0"/>
<stop offset="1" stop-color="#003153"/>
</linearGradient>
<linearGradient id="paint18_linear_248_975" x1="218.761" y1="-134.298" x2="218.761" y2="855.399" gradientUnits="userSpaceOnUse">
<stop stop-color="white" stop-opacity="0"/>
<stop offset="1" stop-color="#003153"/>
</linearGradient>
<linearGradient id="paint19_linear_248_975" x1="230.349" y1="-135.752" x2="230.349" y2="857.979" gradientUnits="userSpaceOnUse">
<stop stop-color="white" stop-opacity="0"/>
<stop offset="1" stop-color="#003153"/>
</linearGradient>
<linearGradient id="paint20_linear_248_975" x1="241.208" y1="-137.192" x2="241.208" y2="860.573" gradientUnits="userSpaceOnUse">
<stop stop-color="white" stop-opacity="0"/>
<stop offset="1" stop-color="#003153"/>
</linearGradient>
<linearGradient id="paint21_linear_248_975" x1="251.829" y1="-138.631" x2="251.829" y2="863.139" gradientUnits="userSpaceOnUse">
<stop stop-color="white" stop-opacity="0"/>
<stop offset="1" stop-color="#003153"/>
</linearGradient>
<linearGradient id="paint22_linear_248_975" x1="262.68" y1="-140.085" x2="262.68" y2="865.705" gradientUnits="userSpaceOnUse">
<stop stop-color="white" stop-opacity="0"/>
<stop offset="1" stop-color="#003153"/>
</linearGradient>
<linearGradient id="paint23_linear_248_975" x1="273.337" y1="-141.525" x2="273.337" y2="868.313" gradientUnits="userSpaceOnUse">
<stop stop-color="white" stop-opacity="0"/>
<stop offset="1" stop-color="#003153"/>
</linearGradient>
<linearGradient id="paint24_linear_248_975" x1="283.95" y1="-142.964" x2="283.95" y2="870.936" gradientUnits="userSpaceOnUse">
<stop stop-color="white" stop-opacity="0"/>
<stop offset="1" stop-color="#003153"/>
</linearGradient>
<linearGradient id="paint25_linear_248_975" x1="297.135" y1="-145.302" x2="297.135" y2="864.536" gradientUnits="userSpaceOnUse">
<stop stop-color="white" stop-opacity="0"/>
<stop offset="1" stop-color="#003153"/>
</linearGradient>
<linearGradient id="paint26_linear_248_975" x1="310.248" y1="-147.654" x2="310.248" y2="858.136" gradientUnits="userSpaceOnUse">
<stop stop-color="white" stop-opacity="0"/>
<stop offset="1" stop-color="#003153"/>
</linearGradient>
<linearGradient id="paint27_linear_248_975" x1="323.195" y1="-149.991" x2="323.195" y2="851.779" gradientUnits="userSpaceOnUse">
<stop stop-color="white" stop-opacity="0"/>
<stop offset="1" stop-color="#003153"/>
</linearGradient>
<linearGradient id="paint28_linear_248_975" x1="336.374" y1="-152.329" x2="336.374" y2="845.421" gradientUnits="userSpaceOnUse">
<stop stop-color="white" stop-opacity="0"/>
<stop offset="1" stop-color="#003153"/>
</linearGradient>
<linearGradient id="paint29_linear_248_975" x1="349.299" y1="-154.667" x2="349.299" y2="839.064" gradientUnits="userSpaceOnUse">
<stop stop-color="white" stop-opacity="0"/>
<stop offset="1" stop-color="#003153"/>
</linearGradient>
<linearGradient id="paint30_linear_248_975" x1="361.51" y1="-157.004" x2="361.51" y2="832.693" gradientUnits="userSpaceOnUse">
<stop stop-color="white" stop-opacity="0"/>
<stop offset="1" stop-color="#003153"/>
</linearGradient>
<linearGradient id="paint31_linear_248_975" x1="373.081" y1="-159.342" x2="373.081" y2="826.322" gradientUnits="userSpaceOnUse">
<stop stop-color="white" stop-opacity="0"/>
<stop offset="1" stop-color="#003153"/>
</linearGradient>
<linearGradient id="paint32_linear_248_975" x1="384.539" y1="-161.679" x2="384.539" y2="819.964" gradientUnits="userSpaceOnUse">
<stop stop-color="white" stop-opacity="0"/>
<stop offset="1" stop-color="#003153"/>
</linearGradient>
<linearGradient id="paint33_linear_248_975" x1="395.884" y1="-164.017" x2="395.884" y2="813.579" gradientUnits="userSpaceOnUse">
<stop stop-color="white" stop-opacity="0"/>
<stop offset="1" stop-color="#003153"/>
</linearGradient>
<linearGradient id="paint34_linear_248_975" x1="407.061" y1="-166.355" x2="407.061" y2="807.221" gradientUnits="userSpaceOnUse">
<stop stop-color="white" stop-opacity="0"/>
<stop offset="1" stop-color="#003153"/>
</linearGradient>
<linearGradient id="paint35_linear_248_975" x1="418.12" y1="-168.692" x2="418.12" y2="800.836" gradientUnits="userSpaceOnUse">
<stop stop-color="white" stop-opacity="0"/>
<stop offset="1" stop-color="#003153"/>
</linearGradient>
<linearGradient id="paint36_linear_248_975" x1="429.092" y1="-171.03" x2="429.092" y2="794.479" gradientUnits="userSpaceOnUse">
<stop stop-color="white" stop-opacity="0"/>
<stop offset="1" stop-color="#003153"/>
</linearGradient>
<linearGradient id="paint37_linear_248_975" x1="440.004" y1="-173.368" x2="440.004" y2="788.107" gradientUnits="userSpaceOnUse">
<stop stop-color="white" stop-opacity="0"/>
<stop offset="1" stop-color="#003153"/>
</linearGradient>
<linearGradient id="paint38_linear_248_975" x1="450.868" y1="-175.705" x2="450.868" y2="781.75" gradientUnits="userSpaceOnUse">
<stop stop-color="white" stop-opacity="0"/>
<stop offset="1" stop-color="#003153"/>
</linearGradient>
<linearGradient id="paint39_linear_248_975" x1="461.709" y1="-178.043" x2="461.709" y2="775.364" gradientUnits="userSpaceOnUse">
<stop stop-color="white" stop-opacity="0"/>
<stop offset="1" stop-color="#003153"/>
</linearGradient>
<linearGradient id="paint40_linear_248_975" x1="472.519" y1="-180.38" x2="472.519" y2="769.021" gradientUnits="userSpaceOnUse">
<stop stop-color="white" stop-opacity="0"/>
<stop offset="1" stop-color="#003153"/>
</linearGradient>
<linearGradient id="paint41_linear_248_975" x1="486.36" y1="-179.639" x2="486.36" y2="766.555" gradientUnits="userSpaceOnUse">
<stop stop-color="white" stop-opacity="0"/>
<stop offset="1" stop-color="#003153"/>
</linearGradient>
<linearGradient id="paint42_linear_248_975" x1="500.178" y1="-178.884" x2="500.178" y2="764.132" gradientUnits="userSpaceOnUse">
<stop stop-color="white" stop-opacity="0"/>
<stop offset="1" stop-color="#003153"/>
</linearGradient>
<linearGradient id="paint43_linear_248_975" x1="513.943" y1="-178.143" x2="513.943" y2="761.681" gradientUnits="userSpaceOnUse">
<stop stop-color="white" stop-opacity="0"/>
<stop offset="1" stop-color="#003153"/>
</linearGradient>
<linearGradient id="paint44_linear_248_975" x1="527.523" y1="-177.387" x2="527.523" y2="759.257" gradientUnits="userSpaceOnUse">
<stop stop-color="white" stop-opacity="0"/>
<stop offset="1" stop-color="#003153"/>
</linearGradient>
<linearGradient id="paint45_linear_248_975" x1="540.439" y1="-176.646" x2="540.439" y2="756.806" gradientUnits="userSpaceOnUse">
<stop stop-color="white" stop-opacity="0"/>
<stop offset="1" stop-color="#003153"/>
</linearGradient>
<linearGradient id="paint46_linear_248_975" x1="553.515" y1="-175.891" x2="553.515" y2="754.368" gradientUnits="userSpaceOnUse">
<stop stop-color="white" stop-opacity="0"/>
<stop offset="1" stop-color="#003153"/>
</linearGradient>
<linearGradient id="paint47_linear_248_975" x1="566.319" y1="-175.135" x2="566.319" y2="751.959" gradientUnits="userSpaceOnUse">
<stop stop-color="white" stop-opacity="0"/>
<stop offset="1" stop-color="#003153"/>
</linearGradient>
<linearGradient id="paint48_linear_248_975" x1="579.054" y1="-174.394" x2="579.054" y2="749.479" gradientUnits="userSpaceOnUse">
<stop stop-color="white" stop-opacity="0"/>
<stop offset="1" stop-color="#003153"/>
</linearGradient>
<linearGradient id="paint49_linear_248_975" x1="591.684" y1="-173.638" x2="591.684" y2="747.056" gradientUnits="userSpaceOnUse">
<stop stop-color="white" stop-opacity="0"/>
<stop offset="1" stop-color="#003153"/>
</linearGradient>
<linearGradient id="paint50_linear_248_975" x1="604.239" y1="-172.897" x2="604.239" y2="744.619" gradientUnits="userSpaceOnUse">
<stop stop-color="white" stop-opacity="0"/>
<stop offset="1" stop-color="#003153"/>
</linearGradient>
<linearGradient id="paint51_linear_248_975" x1="619.389" y1="-172.142" x2="619.389" y2="742.181" gradientUnits="userSpaceOnUse">
<stop stop-color="white" stop-opacity="0"/>
<stop offset="1" stop-color="#003153"/>
</linearGradient>
<linearGradient id="paint52_linear_248_975" x1="634.616" y1="-171.386" x2="634.616" y2="739.73" gradientUnits="userSpaceOnUse">
<stop stop-color="white" stop-opacity="0"/>
<stop offset="1" stop-color="#003153"/>
</linearGradient>
<linearGradient id="paint53_linear_248_975" x1="649.774" y1="-170.645" x2="649.774" y2="737.278" gradientUnits="userSpaceOnUse">
<stop stop-color="white" stop-opacity="0"/>
<stop offset="1" stop-color="#003153"/>
</linearGradient>
<linearGradient id="paint54_linear_248_975" x1="664.91" y1="-169.89" x2="664.91" y2="734.883" gradientUnits="userSpaceOnUse">
<stop stop-color="white" stop-opacity="0"/>
<stop offset="1" stop-color="#003153"/>
</linearGradient>
<linearGradient id="paint55_linear_248_975" x1="680.79" y1="-169.148" x2="680.79" y2="732.417" gradientUnits="userSpaceOnUse">
<stop stop-color="white" stop-opacity="0"/>
<stop offset="1" stop-color="#003153"/>
</linearGradient>
<linearGradient id="paint56_linear_248_975" x1="697.323" y1="-168.393" x2="697.323" y2="729.98" gradientUnits="userSpaceOnUse">
<stop stop-color="white" stop-opacity="0"/>
<stop offset="1" stop-color="#003153"/>
</linearGradient>
<clipPath id="clip0_248_975">
<rect width="659" height="560" fill="white"/>
</clipPath>
</defs>
</svg>
