<svg width="32" height="24" viewBox="0 0 32 24" fill="none" xmlns="http://www.w3.org/2000/svg">
<path fill-rule="evenodd" clip-rule="evenodd" d="M11.8967 21.1235V19.8501C11.8967 19.3185 11.5822 18.9624 11.0528 18.9624C10.7875 18.9624 10.5096 19.0572 10.3221 19.3427C10.1737 19.0868 9.9467 18.9624 9.6191 18.9624C9.4054 18.9624 9.1784 19.0276 9.0176 19.2468V19.0147H8.4883V21.1235H9.0176V20.0074C9.0176 19.6513 9.2199 19.4785 9.5352 19.4785C9.838 19.4785 9.9957 19.6711 9.9957 20.0173V21.1334H10.525V20.0074C10.525 19.6513 10.7379 19.4785 11.0406 19.4785C11.3533 19.4785 11.5011 19.6711 11.5011 20.0173V21.1334H11.8967V21.1235ZM16.2735 19.0147H15.4158V18.3027H14.8865V19.0147H14.3694V19.5113H14.8766V20.381C14.8766 20.908 15.101 21.1929 15.6403 21.1929C15.8526 21.1929 16.0857 21.1235 16.2472 21.0146L16.0857 20.5377C15.9494 20.6266 15.7978 20.6663 15.6636 20.6663C15.4257 20.6663 15.4158 20.4838 15.4158 20.3513V19.5014H16.2735V19.0147ZM20.0396 19.0048C19.7632 19.0048 19.5904 19.1292 19.4783 19.2468V19.0147H18.949V21.1235H19.4783V20.0074C19.4783 19.6612 19.6365 19.4587 19.9424 19.4587C20.0396 19.4587 20.1467 19.4686 20.2439 19.4984L20.4054 18.9921C20.3081 18.9624 20.1467 19.0048 20.0396 19.0048ZM13.9945 19.2171C13.7575 19.0743 13.4316 19.0048 13.0844 19.0048C12.5353 19.0048 12.1683 19.3185 12.1683 19.7954C12.1683 20.1911 12.4449 20.4343 12.9841 20.5179L13.2357 20.5575C13.5081 20.6069 13.6345 20.6762 13.6345 20.7849C13.6345 20.9377 13.4622 21.0366 13.1671 21.0366C12.8618 21.0366 12.6149 20.9179 12.435 20.7948L12.1584 21.222C12.4548 21.4213 12.8122 21.5159 13.1573 21.5159C13.7857 21.5159 14.1738 21.1731 14.1738 20.7551C14.1738 20.3195 13.8644 20.1068 13.348 20.0232L13.0964 19.9836C12.8717 19.9441 12.7175 19.8946 12.7175 19.7657C12.7175 19.6129 12.8717 19.5232 13.1078 19.5232C13.3743 19.5232 13.6345 19.642 13.7758 19.7359L13.9945 19.2171ZM23.662 19.0048C23.385 19.0048 23.2122 19.1292 23.0894 19.2468V19.0147H22.5708V21.1235H23.0894V20.0074C23.0894 19.6612 23.2476 19.4587 23.5543 19.4587C23.6514 19.4587 23.7593 19.4686 23.8557 19.4984L24.0172 18.9921C23.9301 18.9624 23.7686 19.0048 23.662 19.0048ZM17.637 19.0147H17.0986V20.0074C17.0986 20.3612 16.9306 20.6564 16.5213 20.6564C16.2095 20.6564 16.061 20.4739 16.061 20.1276V19.0147H15.5317V20.2364C15.5317 20.8536 15.8355 21.1731 16.3158 21.1731C16.6285 21.1731 16.8655 21.0586 17.0454 20.8196V21.1136H17.5747V19.0147H17.637ZM9.049 17.2211H8.4883V21.1235H9.049V17.2211ZM26.8033 19.5509C26.8033 19.231 26.5565 19.0048 26.1791 19.0048C25.9683 19.0048 25.7684 19.0543 25.6123 19.2765C25.4902 19.0742 25.2826 19.0048 25.0152 19.0048C24.8311 19.0048 24.6498 19.0642 24.51 19.2369V19.0147H23.9807V21.1235H24.51V20.0074C24.51 19.6612 24.6991 19.4785 25.0152 19.4785C25.3179 19.4785 25.4651 19.6711 25.4651 20.0074V21.1136H25.9881V20.0074C25.9881 19.6612 26.1963 19.4785 26.499 19.4785C26.8033 19.4785 26.9505 19.6711 26.9505 20.0074V21.1136H27.479V19.5509H26.8033ZM18.6156 20.0679C18.6156 20.6663 19.0378 21.1829 19.6858 21.1829C19.9723 21.1829 20.2192 21.1037 20.4155 20.9178V21.1334H20.934V19.0246H20.4155V19.2303C20.2291 19.0543 19.9822 18.9753 19.6966 18.9753C19.0386 18.9654 18.6156 19.4786 18.6156 20.0679ZM19.1443 20.0679C19.1443 19.7516 19.3812 19.4885 19.7386 19.4885C20.086 19.4885 20.3328 19.7417 20.3328 20.0679C20.3328 20.3841 20.0869 20.6473 19.7386 20.6473C19.3911 20.6374 19.1443 20.384 19.1443 20.0679ZM22.0529 20.0679C22.0529 20.6663 22.4751 21.1829 23.1231 21.1829C23.4093 21.1829 23.6562 21.1037 23.8528 20.9178V21.1334H24.371V19.0246H23.8528V19.2303C23.6662 19.0543 23.4193 18.9753 23.1329 18.9753C22.4751 18.9654 22.0529 19.4786 22.0529 20.0679ZM22.5708 20.0679C22.5708 19.7516 22.8077 19.4885 23.1648 19.4885C23.5122 19.4885 23.7583 19.7417 23.7583 20.0679C23.7583 20.3841 23.5122 20.6473 23.1648 20.6473C22.8177 20.6374 22.5708 20.384 22.5708 20.0679Z" fill="#231F20"/>
<path opacity="0.799" d="M28.1363 16.0002C28.1363 22.4112 22.9389 27.6085 16.5279 27.6085C10.1169 27.6085 4.91962 22.4112 4.91962 16.0002C4.91962 9.58924 10.1169 4.39191 16.5279 4.39191C22.9389 4.39191 28.1363 9.58924 28.1363 16.0002Z" fill="#FF5F00"/>
<path d="M16.528 4.39191C13.5077 4.39191 10.748 5.51789 8.65039 7.38789C9.52753 6.67073 10.5368 6.12022 11.625 5.76759C12.7131 5.41495 13.8622 5.26637 15.0106 5.3297C16.159 5.39303 17.283 5.6672 18.3251 6.13734C19.3671 6.60748 20.3079 7.2656 21.0911 8.07632C21.8743 8.88704 22.4854 9.84038 22.8929 10.8851C23.3003 11.9298 23.4964 13.0432 23.4699 14.1611C23.4433 15.279 23.1946 16.3815 22.7376 17.4052C22.2805 18.4288 21.6242 19.3508 20.7997 20.1263C22.6691 18.0294 23.7981 15.2668 23.7973 12.2437C23.7965 10.0771 23.1091 7.96225 21.8316 6.18055C20.5541 4.39884 18.7496 3.03951 16.6804 2.28835C14.6111 1.53719 12.3695 1.42726 10.2347 1.97414C8.10002 2.52103 6.17169 3.69913 4.70801 5.35991C5.74069 4.72073 6.86859 4.2374 8.05349 3.92996C9.23838 3.62252 10.4633 3.49529 11.6851 3.55358C12.9068 3.61187 14.1081 3.85474 15.2408 4.27189C16.3735 4.68904 17.4215 5.27394 18.3389 6L16.528 4.39191Z" fill="#EB001B"/>
<path d="M16.528 4.39191C13.5077 4.39191 10.748 5.51789 8.65039 7.38789C9.52753 6.67073 10.5368 6.12022 11.625 5.76759C12.7131 5.41495 13.8622 5.26637 15.0106 5.3297C16.159 5.39303 17.283 5.6672 18.3251 6.13734C19.3671 6.60748 20.3079 7.2656 21.0911 8.07632C21.8743 8.88704 22.4854 9.84038 22.8929 10.8851C23.3003 11.9298 23.4964 13.0432 23.4699 14.1611C23.4433 15.279 23.1946 16.3815 22.7376 17.4052C22.2805 18.4288 21.6242 19.3508 20.7997 20.1263C22.6691 18.0294 23.7981 15.2668 23.7973 12.2437C23.7965 10.0771 23.1091 7.96225 21.8316 6.18055C20.5541 4.39884 18.7496 3.03951 16.6804 2.28835C14.6111 1.53719 12.3695 1.42726 10.2347 1.97414C8.10002 2.52103 6.17169 3.69913 4.70801 5.35991C5.74069 4.72073 6.86859 4.2374 8.05349 3.92996C9.23838 3.62252 10.4633 3.49529 11.6851 3.55358C12.9068 3.61187 14.1081 3.85474 15.2408 4.27189C16.3735 4.68904 17.4215 5.27394 18.3389 6L16.528 4.39191Z" fill="#EB001B"/>
<path d="M28.38 20.6266C27.3473 22.3 25.8726 23.6297 24.1238 24.4797C22.375 25.3296 20.4246 25.663 18.5038 25.4444C16.583 25.2258 14.7651 24.4642 13.2726 23.2524C11.7801 22.0406 10.6719 20.4239 10.0833 18.5916C11.3252 20.2429 13.0316 21.467 14.9826 22.093C16.9335 22.719 19.0314 22.7151 21.0091 22.082C22.9868 21.4489 24.7579 20.2136 26.0841 18.5587C27.4103 16.9038 28.2317 14.8964 28.4405 12.7776C28.6494 10.6588 28.2373 8.52627 27.2611 6.63992C26.2849 4.75357 24.7834 3.18927 22.9414 2.12983C21.0994 1.07039 18.9913 0.563664 16.8772 0.670756C14.7632 0.777847 12.7201 1.49428 11.0048 2.73391C13.9654 0.830906 17.5867 0.166064 21.0662 0.889293C24.5456 1.61252 27.571 3.6601 29.47 6.55991C29.0933 5.11191 28.4625 3.73856 27.6021 2.50191C26.7262 1.23899 25.6034 0.153033 24.2977 -0.710914V-0.791914C25.6122 0.0599866 26.7401 1.1492 27.6183 2.41891C28.4965 3.68862 29.1096 5.11448 29.424 6.61291C29.9723 8.98141 29.8011 11.4584 28.9315 13.7358C28.0618 16.0132 26.533 17.9925 24.5283 19.4089C25.9 18.2629 27.0249 16.8403 27.8189 15.2231C28.6129 13.6059 29.058 11.8316 29.124 10.0266C29.1901 8.22151 28.8755 6.42287 28.2013 4.75311C27.527 3.08336 26.509 1.58205 25.2145 0.350891C27.1005 1.93091 28.4725 4.04591 29.1693 6.43291C29.7881 8.57056 29.8793 10.8326 29.4344 13.0178C28.9895 15.2029 28.0228 17.2392 26.6241 18.9359C25.2254 20.6326 23.4372 21.9357 21.4215 22.7291C19.4057 23.5226 17.2256 23.7823 15.0712 23.4799C12.9168 23.1775 10.8626 22.3232 9.10022 20.9991C7.33784 19.675 5.92555 17.9221 5.00275 15.9166C4.07996 13.9111 3.67647 11.7175 3.82966 9.52797C3.98284 7.33846 4.68807 5.22613 5.86869 3.38709C7.04931 1.54805 8.66508 0.04334 10.574 -1.00291C12.483 -2.04917 14.6146 -2.60009 16.778 -2.59991C18.9413 -2.59973 21.0728 -2.04846 22.9818 -1.00191C24.8908 0.0446412 26.5064 1.54952 27.6869 3.38867C28.8673 5.22782 29.5723 7.34021 29.7253 9.52969C29.7799 10.6465 29.6813 11.767 29.4322 12.8594C29.1831 13.9518 28.7865 15.0047 28.2547 15.9809C27.723 16.9571 27.0624 17.8439 26.2976 18.6101C25.5328 19.3763 24.6739 20.0126 23.7504 20.4959C25.3867 19.5686 26.7889 18.2688 27.8433 16.702C28.8977 15.1352 29.5749 13.347 29.82 11.4794C30.0651 9.61173 29.8725 7.71481 29.2574 5.93383C28.6424 4.15285 27.6213 2.53466 26.2737 1.20691C27.6069 2.5261 28.6295 4.13553 29.2469 5.9089C29.8643 7.68228 30.0603 9.57278 29.8188 11.4347C29.5774 13.2967 28.9045 15.0798 27.8549 16.644C26.8053 18.2081 25.408 19.5075 23.7767 20.4359C27.41 17.9349 29.424 13.9859 29.424 9.79191C29.4238 7.30309 28.7975 4.85732 27.6 2.69091C28.1057 3.59891 28.4996 4.56891 28.7819 5.58591C29.2842 7.32921 29.3868 9.16557 29.082 10.955C28.7773 12.7444 28.0726 14.4449 27.0136 15.9328C25.9546 17.4207 24.5696 18.6592 22.9621 19.5532C21.3546 20.4471 19.5692 20.9718 17.737 21.0861C15.9048 21.2003 14.0693 20.9011 12.3614 20.21C10.6535 19.5188 9.11848 18.4545 7.87039 17.1005C6.62229 15.7465 5.69378 14.1386 5.15059 12.3928C4.6074 10.647 4.46412 8.8047 4.73208 6.99989C4.93739 5.63716 5.36582 4.31841 5.99778 3.09916C6.62975 1.87991 7.45445 0.778855 8.43773 -0.158908C10.5038 -2.17691 13.2617 -3.34391 16.1577 -3.43791C19.0537 -3.53091 21.8797 -2.54591 24.0597 -0.668908C26.2397 1.20809 27.6267 3.91391 27.9317 6.85391C28.2377 9.79391 27.4377 12.7339 25.7137 15.0939C23.9897 17.4539 21.4477 19.0539 18.5597 19.5839C15.6717 20.1139 12.6697 19.5239 10.1757 17.9199C7.68173 16.3159 5.87973 13.8159 5.15573 10.9159C4.40049 7.87329 4.91138 4.65307 6.57992 1.97891V1.90691C5.20373 3.40291 4.22173 5.21291 3.73173 7.17091C3.24173 9.12891 3.26173 11.1759 3.78773 13.1209C4.75573 16.7339 7.33773 19.7239 10.7617 21.1559C14.1857 22.5879 18.0997 22.2759 21.2497 20.3199L21.3497 20.2619C19.2147 21.5849 16.7007 22.1919 14.2137 21.9939C11.7267 21.7939 9.37973 20.7999 7.52373 19.1599C5.66773 17.5199 4.40773 15.3259 3.95373 12.9079C3.49973 10.4899 3.87373 7.99191 5.01173 5.80591C6.14973 3.61991 8.00173 1.88591 10.2677 0.870906C12.5337 -0.14409 15.0837 -0.37009 17.4877 0.216906C19.8917 0.803906 22.0177 2.16991 23.5097 4.10091C25.0017 6.03191 25.7727 8.40291 25.7017 10.8279C25.6297 13.2539 24.7197 15.5769 23.1137 17.4169C21.5077 19.2569 19.2947 20.4889 16.8467 20.9149C14.3987 21.3409 11.8727 20.9359 9.67673 19.7689C7.48073 18.6019 5.72973 16.7429 4.69573 14.4689C4.03173 12.9949 3.70173 11.3879 3.72973 9.76691C3.75773 8.14591 4.14373 6.55091 4.86173 5.09991C8.00973 -1.08809 16.5077 -3.89909 22.9357 -1.04309C24.9077 -0.10909 26.6517 1.23591 27.9997 2.89591C27.5237 1.70391 26.8337 0.60891 25.9667 -0.349088L25.8667 -0.449088C27.1941 1.05304 28.1013 2.88941 28.4945 4.86991C29.3132 8.53721 28.3991 12.3608 26.0003 15.2059C23.6015 18.051 19.9798 19.6147 16.198 19.4896C12.4162 19.3646 8.91302 17.5628 6.70573 14.54C5.41373 12.7829 4.64574 10.7098 4.4805 8.54691C4.31526 6.38397 4.75867 4.21705 5.76973 2.27591C7.3038 -0.819094 10.1978 -3.10809 13.6577 -3.96109C17.1167 -4.81409 20.7797 -4.14809 23.6797 -2.12109C26.5797 -0.0930937 28.4997 3.09691 28.9097 6.64591C29.3197 10.1949 28.1797 13.7639 25.7897 16.3659C23.3997 18.9679 19.9997 20.3639 16.4997 20.1639C12.9997 19.9639 9.79973 18.1839 7.77973 15.3239C5.75973 12.4639 5.16973 8.83391 6.13973 5.47391C7.10973 2.11391 9.52573 -0.61909 12.7367 -1.78809C15.9477 -2.95709 19.5057 -2.41909 22.2677 -0.36609C25.0297 1.68691 26.5997 5.00291 26.5017 8.46191C26.4037 11.9209 24.6527 15.1369 21.7467 17.0099C18.8407 18.8829 15.2327 19.1919 12.0547 17.8339C8.87673 16.4759 6.59973 13.6059 5.97973 10.2059C5.35973 6.80591 6.46773 3.31391 8.97573 0.82591C11.4837 -1.66209 15.1477 -2.84209 18.6697 -2.36409C22.1917 -1.88609 25.2797 0.18991 26.9497 3.31791C28.6197 6.44591 28.6697 10.2119 27.0797 13.3839C25.4897 16.5549 22.4967 18.7119 18.9987 19.2579C15.5007 19.8039 11.8747 18.6839 9.35173 16.2359C6.82873 13.7879 5.67373 10.3029 6.19173 6.88291C6.70973 3.46291 8.84573 0.48591 11.9967 -1.02809C15.1477 -2.54209 18.9577 -2.35509 21.9587 -0.54609C24.9587 1.26291 26.8117 4.48891 27.0097 7.98191C27.2077 11.4749 25.7257 14.8549 23.0077 17.0489C20.2897 19.2429 16.6627 19.9609 13.3077 19.0139C9.95373 18.0669 7.23973 15.5649 6.01573 12.3079C4.79173 9.05091 5.19773 5.36891 7.11573 2.43691C7.76573 1.46091 8.56173 0.59391 9.46973 -0.136908C9.87373 -0.435908 10.2947 -0.707908 10.7317 -0.953908C13.0697 -2.13291 15.7787 -2.36891 18.2847 -1.60791C20.7907 -0.846914 22.9237 0.853086 24.2257 3.14909C25.5277 5.44509 25.9337 8.16509 25.3577 10.7599C24.7817 13.3539 23.2637 15.6099 21.1017 17.0559C18.9397 18.5009 16.2817 19.0009 13.7497 18.4629C11.2167 17.9249 8.98973 16.3839 7.56973 14.1729C6.14973 11.9619 5.64973 9.26091 6.16673 6.69791C6.68373 4.13491 8.17873 1.87091 10.3367 0.42991C11.7887 -0.59109 13.5027 -1.14509 15.2547 -1.18809C16.1337 -1.21809 17.0087 -1.10209 17.8477 -0.850086C27.8507 1.86391 30.0767 14.9709 21.9997 20.6259H28.38V20.6266Z" fill="#F79E1B"/>
</svg>