<svg width="48" height="48" viewBox="0 0 48 48" fill="none" xmlns="http://www.w3.org/2000/svg">
<rect width="48" height="48" rx="6" fill="#F7F9FB"/>
<path d="M36.5 31.9H11.5V32.9C11.5 34.0046 12.3954 34.9 13.5 34.9H34.5C35.6046 34.9 36.5 34.0046 36.5 32.9V31.9Z" fill="#5B57A2"/>
<path d="M36.5 29.3H11.5V31.9H36.5V29.3Z" fill="#D90751"/>
<path d="M11.5 15.1C11.5 13.9954 12.3954 13.1 13.5 13.1H34.5C35.6046 13.1 36.5 13.9954 36.5 15.1V29.3H11.5V15.1Z" fill="#00A6D5"/>
<path d="M23.9997 17.7C22.6377 17.7 21.4417 18.398 20.7937 19.45C20.7517 19.514 20.7377 19.566 20.7377 19.622C20.7377 19.714 20.7797 19.806 20.8497 19.862L21.6557 20.486C21.7137 20.53 21.7837 20.558 21.8537 20.558C21.9517 20.558 22.0497 20.51 22.1197 20.418C22.4617 19.982 23.1937 19.45 23.9997 19.45C25.0797 19.45 25.9697 20.39 25.9697 21.492C25.9697 22.566 25.1077 23.478 24.0137 23.506C23.9997 23.506 23.9997 23.506 23.9857 23.506C23.9577 23.506 23.9297 23.52 23.9157 23.534L23.1097 24.446C23.0957 24.46 23.0817 24.488 23.0817 24.516V26.464C23.0817 26.52 23.1097 26.574 23.1657 26.602C23.4517 26.686 23.7237 26.73 23.9997 26.73C26.4897 26.73 28.4997 24.698 28.4997 22.18C28.4997 19.69 26.4897 17.7 23.9997 17.7Z" fill="white"/>
<path d="M22.3242 28.268C22.5122 28.268 22.6802 28.184 22.7782 28.044L27.6682 20.726C27.7102 20.656 27.7382 20.572 27.7382 20.488C27.7382 20.25 27.5502 20.06 27.3202 20.06H23.0822C22.8522 20.06 22.6922 20.222 22.6502 20.39C22.6502 20.404 22.6502 20.404 22.6502 20.418V27.91C22.6502 28.1 22.7922 28.254 22.9662 28.268C22.9802 28.268 22.9942 28.268 23.0082 28.268H22.3242Z" fill="white"/>
<path d="M20.3231 28.268C20.1351 28.268 19.9671 28.184 19.8691 28.044L14.9791 20.726C14.9371 20.656 14.9091 20.572 14.9091 20.488C14.9091 20.25 15.0971 20.06 15.3271 20.06H19.5651C19.7951 20.06 19.9551 20.222 19.9971 20.39C19.9971 20.404 19.9971 20.404 19.9971 20.418V27.91C19.9971 28.1 19.8551 28.254 19.6811 28.268C19.6671 28.268 19.6531 28.268 19.6391 28.268H20.3231Z" fill="white"/>
<path d="M33.1046 23.618H32.3646C32.1906 23.618 32.0206 23.702 31.9226 23.856L30.6006 25.958L29.2366 23.856C29.1386 23.702 28.9686 23.618 28.7946 23.618H28.0686C27.8246 23.618 27.6366 23.82 27.6366 24.072V27.802C27.6366 28.054 27.8246 28.256 28.0686 28.256H28.3546C28.5986 28.256 28.7866 28.054 28.7866 27.802V25.624L29.6766 27.046C29.7746 27.2 29.9446 27.284 30.1186 27.284H31.0826C31.2566 27.284 31.4266 27.2 31.5246 27.046L32.4146 25.624V27.802C32.4146 28.054 32.6026 28.256 32.8466 28.256H33.1186C33.3626 28.256 33.5506 28.054 33.5506 27.802V24.072C33.5506 23.82 33.3486 23.618 33.1046 23.618Z" fill="white"/>
</svg>