<svg width="40" height="13" viewBox="0 0 40 13" fill="none" xmlns="http://www.w3.org/2000/svg">
<path d="M14.5418 12.5755H11.6992L9.8911 2.97504C9.80414 2.61786 9.58857 2.30804 9.27739 2.15584C8.34476 1.70109 7.32792 1.32608 6.22656 1.11157V0.746346H11.0003C11.6992 0.746346 12.2262 1.24827 12.3131 1.85259L13.1739 8.31097L16.3498 0.746346H19.1206L14.5418 12.5755Z" fill="#00579F"/>
<path d="M27.8145 8.61191C27.8145 5.9627 25.3218 5.85369 25.3218 4.64591C25.3218 4.213 25.7618 3.75825 26.7259 3.64924C27.2112 3.59693 28.4386 3.58231 29.8014 4.10515L30.2414 1.47741C29.496 1.19531 28.575 0.931787 27.4304 0.931787C24.8508 0.931787 22.9558 2.32607 22.9558 4.42701C22.9558 5.88399 24.2695 6.73391 25.2335 7.26137C26.2192 7.80345 26.5738 8.1709 26.5738 8.67909C26.5738 9.44211 25.6844 9.78467 24.8508 9.78467C23.394 9.78467 22.5171 9.43748 21.8399 9.16001L21.3999 11.8385C22.0987 12.1206 23.3262 12.3644 24.5969 12.3644C27.3312 12.379 29.1827 11.013 29.1827 8.79872C29.1827 7.85342 28.6539 7.05887 27.8145 6.49755V8.61191Z" fill="#00579F"/>
<path d="M19.9818 0.746094H22.5614L20.8835 12.5753H18.3039L19.9818 0.746094Z" fill="#00579F"/>
<path d="M37.2288 0.746094L34.8666 8.7254L34.458 7.01686C33.7592 4.99286 31.8208 2.82619 29.6246 1.65072L32.1608 12.5607H35.0034L39.5386 0.746094H37.2288Z" fill="#00579F"/>
<path d="M4.43858 0.74634H0.0712891L0 1.0723C3.45361 1.9954 5.74764 4.24713 6.70796 7.0022L5.67804 1.8672C5.52341 1.2483 5.05112 0.76085 4.43858 0.74634Z" fill="#FAA61A"/>
</svg>